<?xml version="1.0" standalone="no"?>
<!DOCTYPE svg PUBLIC "-//W3C//DTD SVG 20010904//EN"
 "http://www.w3.org/TR/2001/REC-SVG-20010904/DTD/svg10.dtd">
<svg version="1.0" xmlns="http://www.w3.org/2000/svg"
 width="1606.000000pt" height="1606.000000pt" viewBox="0 0 1606.000000 1606.000000"
 preserveAspectRatio="xMidYMid meet">
<metadata>
Created by potrace 1.14, written by Peter Selinger 2001-2017
</metadata>
<g transform="translate(0.000000,1606.000000) scale(0.100000,-0.100000)"
fill="#000000" stroke="none">
<path d="M11500 11836 c-17 -36 -44 -114 -61 -173 -43 -149 -47 -271 -12 -392
13 -47 25 -90 27 -96 1 -5 10 -27 19 -49 9 -21 17 -40 17 -42 0 -2 14 -34 31
-71 92 -202 80 -187 264 -348 50 -43 97 -86 106 -94 9 -9 51 -47 95 -86 43
-38 90 -81 105 -95 15 -14 50 -45 79 -69 28 -24 68 -60 89 -80 22 -20 65 -58
96 -86 32 -27 63 -55 69 -61 6 -5 56 -50 111 -99 55 -49 105 -93 111 -99 6 -6
41 -38 78 -71 38 -33 78 -69 90 -80 13 -11 53 -47 90 -80 73 -64 71 -63 195
-175 46 -41 91 -81 100 -90 40 -34 168 -148 215 -191 28 -25 69 -61 91 -80 22
-19 45 -39 50 -45 6 -5 50 -46 99 -90 49 -43 107 -95 128 -114 l38 -35 -775 1
-775 0 0 -108 c-1 -59 -1 -218 -1 -353 0 -135 0 -258 1 -274 l0 -29 1201 0
c1135 1 1202 0 1223 -17 30 -26 178 -156 197 -175 14 -14 73 -66 229 -204 30
-27 62 -55 70 -63 8 -7 29 -25 45 -40 95 -82 126 -116 120 -132 -4 -9 -25 -65
-46 -126 -22 -60 -42 -117 -46 -125 -3 -8 -23 -62 -43 -120 -130 -359 -191
-528 -210 -575 -22 -56 -127 -346 -134 -370 -2 -5 -6 -17 -9 -25 -4 -8 -25
-67 -48 -130 -22 -63 -54 -151 -71 -195 -16 -44 -31 -84 -32 -90 -1 -5 -4 -14
-7 -20 -4 -5 -14 -34 -23 -62 -10 -29 -21 -54 -24 -54 -4 -1 -290 -2 -637 -3
l-630 -2 -100 -38 c-179 -69 -338 -159 -401 -228 -36 -40 -91 -121 -127 -188
-42 -79 -114 -250 -119 -282 l-3 -23 1075 1 c591 0 1089 3 1105 6 122 23 217
70 285 138 47 49 150 230 150 264 0 9 5 16 12 16 6 0 9 3 5 6 -3 3 7 33 22 67
15 34 29 67 31 72 1 6 4 15 5 20 3 11 43 130 53 155 3 8 6 22 8 30 2 8 7 23
13 35 14 30 24 58 28 80 1 11 7 29 12 40 5 11 23 61 40 110 16 50 68 205 116
345 95 281 92 273 94 280 0 3 15 43 32 90 17 47 32 92 34 100 5 20 14 45 90
265 36 105 67 197 70 205 2 8 29 89 61 180 50 144 57 176 59 250 3 144 -31
247 -125 371 -52 69 -131 146 -328 318 -11 9 -55 48 -98 87 -43 39 -146 131
-229 204 -82 73 -152 136 -155 139 -3 3 -41 38 -85 76 -44 39 -85 75 -91 80
-6 6 -41 37 -78 70 -37 33 -82 74 -100 90 -18 17 -66 59 -106 95 -41 36 -81
72 -90 80 -9 8 -52 46 -96 85 -43 38 -84 74 -90 80 -96 87 -181 163 -194 175
-9 8 -48 42 -85 75 -37 33 -80 71 -95 85 -27 25 -154 139 -188 169 -11 9 -53
47 -94 84 -42 37 -85 76 -96 85 -45 40 -167 148 -182 162 -9 8 -51 47 -95 85
-44 39 -89 79 -100 90 -18 17 -125 113 -185 165 -40 35 -165 146 -180 160 -9
8 -76 69 -150 135 -74 66 -140 125 -146 130 -6 6 -44 39 -84 75 -40 36 -78 70
-84 75 -6 6 -74 66 -151 135 -77 68 -145 129 -151 135 -6 5 -49 44 -95 85 -76
68 -196 183 -410 393 l-80 78 -29 -65z"/>
<path d="M9284 9010 c-24 -20 -27 -35 -14 -61 11 -19 30 -18 30 2 0 6 -5 7
-12 3 -7 -4 -8 -3 -4 5 9 13 27 5 25 -12 -4 -36 2 -41 21 -18 11 13 20 19 21
15 0 -5 4 1 9 14 19 47 -37 86 -76 52z m58 -14 c-2 -5 2 -13 10 -18 11 -8 11
-9 0 -6 -8 2 -13 8 -12 13 1 6 -9 13 -22 17 -22 7 -22 7 2 5 14 -1 23 -6 22
-11z m-61 -19 c-10 -9 -11 -8 -5 6 3 10 9 15 12 12 3 -3 0 -11 -7 -18z m48
-21 c-3 -3 -11 5 -18 17 -13 21 -12 21 5 5 10 -10 16 -20 13 -22z"/>
<path d="M3040 8904 c0 -6 6 -14 14 -17 9 -4 12 -14 9 -28 -4 -13 -2 -20 3
-16 6 3 16 1 24 -4 11 -7 8 -8 -10 -5 -18 2 -25 9 -24 25 0 11 -4 21 -9 21 -5
0 -7 -13 -5 -30 3 -17 0 -30 -6 -30 -5 0 -1 -6 10 -14 16 -12 17 -17 6 -28
-11 -11 -12 -10 -7 3 5 12 -4 15 -49 15 l-55 -1 1 -32 c1 -26 4 -31 15 -22 7
6 13 7 13 2 0 -12 60 -11 60 2 0 5 5 2 11 -8 7 -13 7 -22 0 -31 -11 -13 -5
-26 11 -26 5 0 7 4 3 9 -10 17 17 24 31 7 8 -9 9 -11 2 -6 -16 13 -31 13 -23
0 3 -6 -1 -13 -9 -16 -9 -3 -13 -10 -10 -15 3 -5 1 -9 -5 -9 -6 0 -8 -7 -5
-15 7 -17 25 -21 22 -4 -2 6 4 14 12 16 13 4 13 3 0 -6 -8 -6 -10 -11 -5 -11
6 0 1 -7 -10 -16 -16 -12 -17 -17 -7 -23 11 -7 10 -10 -3 -15 -10 -3 -13 -11
-9 -18 11 -18 14 -59 4 -53 -5 3 -5 -9 1 -27 11 -41 11 -41 -3 -32 -7 5 -8 3
-3 -5 4 -7 8 -32 9 -54 1 -23 5 -48 9 -54 5 -7 5 -13 0 -14 -4 0 2 -4 15 -9
12 -5 22 -15 22 -22 0 -9 -3 -9 -10 2 -7 10 -10 11 -10 2 0 -7 8 -16 18 -19 9
-4 19 -9 22 -13 3 -3 21 -11 41 -16 30 -9 38 -8 47 5 10 14 11 14 11 -2 1 -10
6 -15 12 -12 5 4 22 8 35 10 36 4 56 27 47 53 -12 32 -21 30 -48 -10 -14 -21
-28 -38 -31 -38 -3 0 2 10 10 22 23 33 19 47 -5 18 -14 -16 -19 -19 -15 -7 3
11 0 17 -10 17 -8 0 -12 -4 -9 -10 3 -6 -1 -7 -9 -4 -9 3 -13 11 -9 18 4 6 -2
4 -12 -4 -15 -12 -17 -12 -10 -1 6 11 4 13 -9 8 -9 -4 -15 -3 -12 1 2 4 1 14
-4 22 -7 12 -10 12 -16 -3 -3 -9 -10 -17 -16 -17 -5 0 -3 9 5 21 13 18 13 35
-2 94 -2 6 -7 9 -13 7 -5 -1 -12 7 -15 18 -3 11 -9 20 -14 20 -5 0 -9 5 -9 10
0 6 7 6 19 -2 10 -6 17 -17 15 -23 -3 -6 2 -12 11 -12 8 0 15 9 15 19 0 10 -4
18 -10 18 -5 0 -10 4 -10 10 0 5 8 7 18 4 16 -5 15 -4 -1 9 -18 15 -18 16 0
27 16 10 15 11 -7 6 l-25 -5 24 18 c18 14 21 20 10 25 -11 5 -11 7 -1 12 10 5
10 9 1 20 -6 8 -8 14 -4 14 4 0 1 8 -6 17 -10 11 -10 14 -1 9 9 -5 12 4 12 34
0 30 -3 39 -12 34 -10 -5 -10 -4 -2 5 6 6 21 14 34 16 13 2 27 10 32 17 6 10
8 9 8 -2 0 -10 9 -16 25 -16 15 0 25 6 25 14 0 12 -3 12 -15 2 -9 -7 -15 -8
-15 -2 0 19 31 22 38 4 8 -20 49 -25 56 -6 6 15 -22 34 -41 27 -7 -3 -13 0
-13 7 0 6 5 8 10 5 6 -3 10 -2 10 3 0 16 -84 9 -92 -8 -6 -13 -7 -13 -7 1 -1
22 -40 17 -58 -7 -8 -10 -19 -18 -24 -16 -5 1 -9 -3 -9 -9 0 -7 10 -9 28 -5
22 5 24 4 9 -5 -22 -13 -51 -4 -44 14 2 6 9 11 14 10 5 -1 15 8 22 19 11 18
11 20 -4 15 -9 -4 -14 -3 -10 3 3 6 1 10 -6 10 -7 0 -10 3 -7 6 4 3 16 1 27
-6 20 -10 21 -8 21 47 l0 58 -35 1 c-22 0 -35 -4 -35 -12z m57 -10 c-3 -3 -12
-4 -19 -1 -8 3 -5 6 6 6 11 1 17 -2 13 -5z m3 -34 c0 -5 -2 -10 -4 -10 -3 0
-8 5 -11 10 -3 6 -1 10 4 10 6 0 11 -4 11 -10z m-110 -84 c-9 -12 -8 -15 9
-13 14 1 20 6 16 15 -3 7 0 10 6 7 5 -4 8 -12 6 -18 -5 -17 -39 -17 -61 0 -15
11 -16 14 -4 10 10 -4 20 -2 23 3 4 6 9 10 12 10 3 0 0 -6 -7 -14z m160 -21
c0 -2 -5 -7 -12 -11 -7 -4 -8 -3 -4 4 4 7 1 12 -8 12 -9 0 -16 5 -16 10 0 7 6
7 20 0 11 -6 20 -13 20 -15z m-53 -91 c-3 -3 -12 -4 -19 -1 -8 3 -5 6 6 6 11
1 17 -2 13 -5z m-7 -64 c0 -5 -4 -10 -10 -10 -5 0 -10 5 -10 10 0 6 5 10 10
10 6 0 10 -4 10 -10z m-8 -42 c-9 -9 -15 -9 -24 1 -11 11 -10 13 5 8 10 -4 17
-2 17 5 0 6 3 8 7 5 4 -4 1 -13 -5 -19z m-5 -60 c-3 -8 -6 -5 -6 6 -1 11 2 17
5 13 3 -3 4 -12 1 -19z m13 -98 c0 -5 -8 -6 -17 -3 -16 6 -16 5 -4 -10 7 -9 9
-17 3 -17 -12 0 -23 26 -15 34 10 10 33 7 33 -4z m-6 -70 c-6 -6 -10 -3 -10
10 0 13 4 16 10 10 7 -7 7 -13 0 -20z m66 -55 c0 -2 -5 -7 -12 -11 -7 -4 -8
-3 -4 4 4 7 1 12 -8 12 -9 0 -16 5 -16 10 0 7 6 7 20 0 11 -6 20 -13 20 -15z
m33 -8 c7 3 8 2 4 -2 -14 -16 -36 -14 -29 3 4 10 7 12 10 4 2 -7 9 -9 15 -5z
m107 -1 c0 -2 -9 -6 -20 -9 -11 -3 -18 -1 -14 4 5 9 34 13 34 5z"/>
<path d="M7742 8893 c-1 -13 3 -23 8 -23 6 0 10 -4 10 -10 0 -5 -8 -6 -17 -3
-15 6 -16 4 -6 -8 6 -8 11 -24 9 -34 -2 -17 -11 -20 -52 -20 -49 0 -50 0 -50
-30 0 -26 4 -31 24 -31 22 0 22 1 6 13 -26 19 -3 16 25 -3 23 -16 23 -16 17 7
l-6 24 11 -22 c7 -13 15 -23 18 -23 4 0 6 -41 4 -91 -2 -87 2 -109 12 -59 2
12 7 25 10 29 4 3 4 -7 1 -23 -3 -16 -10 -34 -16 -40 -18 -18 -11 -46 15 -56
16 -6 23 -14 19 -25 -3 -8 -8 -15 -11 -15 -3 0 -3 6 0 14 3 8 -2 16 -14 19
-18 5 -19 1 -15 -76 2 -48 8 -83 15 -85 6 -2 11 -10 11 -18 0 -8 5 -14 11 -14
5 0 8 -4 5 -9 -6 -10 71 -47 80 -38 4 4 15 2 25 -3 10 -6 20 -6 23 -1 3 4 17
7 31 6 14 -2 27 1 31 6 3 5 10 6 16 3 7 -4 8 -2 4 4 -4 7 -1 12 9 12 15 0 14
3 -1 29 l-18 30 -18 -21 c-10 -12 -18 -16 -18 -9 0 7 -4 10 -8 7 -18 -11 -62
-14 -67 -5 -4 5 -13 9 -21 9 -8 0 -13 -3 -10 -8 2 -4 -2 -16 -10 -27 -8 -10
-14 -14 -14 -8 0 7 4 14 9 17 12 8 6 59 -8 64 -6 2 -11 11 -11 20 0 15 -2 15
-10 2 -7 -10 -10 -11 -10 -2 0 7 6 15 14 18 8 3 12 12 9 20 -3 8 -9 11 -14 8
-5 -3 -9 0 -9 5 0 6 7 11 15 11 9 0 12 6 8 16 -5 13 -7 13 -14 2 -7 -10 -9
-10 -9 0 0 7 6 15 14 18 8 3 12 12 9 20 -3 8 -9 11 -14 8 -5 -3 -9 0 -9 5 0 6
8 11 17 11 11 0 13 3 8 9 -6 6 -8 59 -5 128 5 110 6 118 25 118 11 -1 24 4 28
10 5 6 7 4 4 -5 -2 -8 -14 -14 -25 -14 -12 1 -22 -4 -22 -10 0 -6 11 -11 25
-11 14 0 25 4 25 8 0 5 6 5 13 0 6 -4 27 -8 45 -8 25 -1 31 2 27 14 -2 9 0 23
6 31 8 12 9 11 5 -5 -6 -23 8 -53 18 -37 3 6 2 14 -4 17 -8 5 -7 11 1 21 13
16 15 16 -83 18 -36 0 -64 -2 -62 -6 3 -4 -2 -5 -10 -2 -19 7 -23 28 -16 84
l6 45 -36 1 c-31 0 -36 -3 -38 -23z m33 7 c-3 -5 -12 -10 -18 -10 -7 0 -6 4 3
10 19 12 23 12 15 0z m20 -18 c-15 -11 -19 -46 -4 -36 8 4 10 3 5 -5 -16 -26
-28 7 -17 47 1 1 7 2 14 2 7 0 8 -3 2 -8z m-34 -95 c-10 -9 -11 -8 -5 6 3 10
9 15 12 12 3 -3 0 -11 -7 -18z m-56 -7 c-3 -5 -12 -10 -18 -10 -7 0 -6 4 3 10
19 12 23 12 15 0z m101 -2 c4 -6 3 -8 -3 -5 -6 4 -13 0 -17 -8 -3 -9 -12 -12
-23 -8 -15 5 -16 3 -5 -8 6 -7 12 -17 12 -22 0 -5 -10 2 -21 17 -12 15 -19 30
-15 33 3 4 6 2 6 -3 0 -5 9 -10 20 -10 11 0 20 6 20 13 0 16 16 17 26 1z m134
0 c0 -4 -4 -8 -9 -8 -6 0 -12 4 -15 8 -3 5 1 9 9 9 8 0 15 -4 15 -9z m0 -34
c0 -2 -9 0 -20 6 -15 8 -20 8 -20 -1 0 -7 -3 -10 -6 -6 -3 3 -3 10 1 16 6 11
45 -2 45 -15z m-143 -16 c-3 -8 -6 -5 -6 6 -1 11 2 17 5 13 3 -3 4 -12 1 -19z
m-8 -21 c-2 -2 -11 -8 -20 -15 -12 -9 -16 -9 -16 1 0 7 9 14 20 14 11 1 18 1
16 0z m3 -24 c-6 -2 -10 -9 -7 -13 3 -5 -5 -14 -17 -20 -22 -11 -22 -10 -4 4
11 9 16 16 12 16 -4 0 -4 5 -1 10 3 6 12 10 18 9 9 0 8 -2 -1 -6z m-2 -63 c8
-5 11 -10 5 -10 -5 0 -17 5 -25 10 -8 5 -10 10 -5 10 6 0 17 -5 25 -10z m6
-62 c5 -7 3 -8 -5 -3 -9 5 -12 0 -9 -16 2 -16 -3 -25 -14 -27 -10 -2 -18 1
-18 7 0 6 7 7 17 4 11 -4 14 -3 9 6 -8 12 -2 41 8 41 3 0 8 -5 12 -12z m-22
-183 c-9 -14 -19 -25 -21 -25 -3 0 3 12 12 27 14 20 14 25 3 21 -8 -4 -15 0
-15 7 0 10 5 11 19 4 17 -9 17 -11 2 -34z m16 -35 c0 -5 -4 -10 -10 -10 -5 0
-10 5 -10 10 0 6 5 10 10 10 6 0 10 -4 10 -10z m35 -9 c3 -5 0 -13 -6 -17 -7
-4 -9 -3 -5 4 3 5 0 13 -6 15 -9 4 -10 6 -1 6 6 1 14 -3 18 -8z m-10 -40 c-6
-5 -25 10 -25 20 0 5 6 4 14 -3 8 -7 12 -15 11 -17z m178 5 c4 -10 1 -13 -8
-9 -8 3 -12 9 -9 14 7 12 11 11 17 -5z m-89 -45 c-2 -2 -13 4 -24 14 -19 17
-20 17 -20 0 0 -10 -3 -16 -6 -12 -4 3 -4 13 0 22 5 14 8 14 30 -2 13 -10 22
-20 20 -22z m42 16 c1 -9 -2 -15 -7 -11 -5 3 -6 10 -3 16 4 6 -1 8 -14 4 -11
-4 -23 -3 -25 2 -3 4 6 8 20 7 17 0 27 -6 29 -18z m21 -9 c-3 -8 -6 -5 -6 6
-1 11 2 17 5 13 3 -3 4 -12 1 -19z"/>
<path d="M8834 8909 c-2 -4 4 -12 13 -18 10 -6 13 -11 7 -11 -7 0 -14 -9 -17
-20 -4 -15 -1 -20 11 -18 21 4 23 -24 2 -29 -13 -4 -13 -3 0 6 8 5 12 13 9 16
-4 3 -11 -1 -18 -9 -9 -11 -8 -17 3 -29 15 -14 12 -27 -6 -27 -5 0 -7 4 -4 9
3 5 -1 11 -9 15 -8 3 -15 1 -15 -4 0 -6 -5 -10 -11 -10 -5 0 -8 3 -6 8 3 4 -8
7 -24 7 -31 1 -37 -12 -16 -34 10 -11 9 -12 -2 -6 -9 5 -12 3 -9 -5 2 -8 23
-15 51 -16 38 -2 49 1 57 17 9 16 14 17 30 7 10 -7 17 -14 15 -17 -3 -2 -12 2
-22 10 -15 12 -16 12 -10 -4 4 -11 3 -16 -3 -12 -9 6 -14 -7 -11 -27 0 -4 -3
-18 -9 -32 -6 -16 -5 -26 1 -28 7 -2 7 -12 0 -30 -10 -25 -6 -38 11 -38 4 0 8
5 8 11 0 5 -5 7 -12 3 -7 -5 -8 -3 -3 5 5 9 11 9 17 3 13 -13 1 -32 -20 -32
-13 0 -12 -5 8 -20 18 -15 20 -18 6 -13 -13 4 -17 3 -12 -5 4 -7 2 -12 -6 -12
-8 0 -9 -3 -3 -8 12 -8 12 -62 1 -80 -3 -6 -3 -13 2 -16 5 -3 7 -19 6 -35 -1
-17 2 -33 7 -36 4 -3 6 -12 2 -20 -3 -8 0 -15 6 -15 6 0 11 -7 11 -15 0 -8 4
-15 9 -15 5 0 16 -6 23 -14 16 -16 84 -33 75 -19 -3 5 -1 15 4 23 9 13 10 13
8 0 -4 -36 3 -43 15 -15 10 25 13 26 19 12 4 -11 3 -16 -3 -12 -6 3 -10 -1
-10 -11 0 -15 2 -15 22 -2 28 19 36 40 11 32 -15 -5 -15 -4 -3 5 11 8 19 6 31
-10 13 -18 17 -19 28 -5 10 12 9 20 -3 43 -8 15 -15 23 -16 17 0 -20 -85 -40
-95 -23 -4 5 -14 5 -27 -2 -15 -8 -23 -8 -32 1 -8 8 -7 10 6 5 15 -6 15 -3 -2
34 -11 22 -20 46 -20 54 0 7 -6 19 -12 26 -10 11 -10 13 0 7 8 -5 12 0 12 13
0 12 -6 21 -12 21 -10 0 -10 2 0 8 13 9 14 92 0 92 -4 0 -8 10 -7 23 0 20 1
20 8 3 4 -11 10 -15 14 -10 3 6 2 15 -2 22 -4 7 -6 33 -4 58 2 28 -1 53 -9 62
-10 12 -10 14 0 8 6 -4 12 -3 12 3 0 5 16 8 35 7 22 -3 41 2 50 11 13 12 15
12 15 1 0 -10 11 -14 34 -14 19 0 32 4 30 8 -3 5 1 8 8 8 10 0 10 2 -1 9 -7 5
-11 13 -7 19 12 19 -81 28 -100 9 -4 -4 -12 -7 -18 -7 -6 0 -4 5 4 11 12 8 11
9 -5 5 -35 -9 -47 8 -47 65 l-1 54 -34 1 c-19 0 -36 -3 -39 -7z m57 -26 c12
-14 12 -16 0 -8 -11 6 -13 4 -8 -8 3 -10 2 -17 -3 -17 -5 0 -9 11 -8 25 3 30
2 29 19 8z m11 -68 c3 -13 1 -22 -3 -19 -9 5 -13 44 -5 44 2 0 6 -11 8 -25z
m-8 -45 c-6 -5 -24 21 -24 34 0 6 6 1 14 -10 8 -10 12 -21 10 -24z m27 -7
c-12 -20 -14 -14 -5 12 4 9 9 14 11 11 3 -2 0 -13 -6 -23z m114 17 c-3 -5 -12
-10 -18 -10 -7 0 -6 4 3 10 19 12 23 12 15 0z m-207 -31 c2 -8 0 -10 -5 -4 -4
6 -15 10 -23 10 -8 0 -18 -4 -22 -10 -5 -6 -8 -6 -8 1 0 16 8 21 32 19 12 -1
24 -8 26 -16z m157 11 c3 -5 0 -12 -6 -16 -7 -4 -9 -3 -5 4 4 7 -1 10 -14 9
-11 -1 -20 -6 -20 -11 0 -5 -3 -7 -6 -3 -10 10 3 23 25 24 11 1 23 -2 26 -7z
m75 -4 c0 -2 -7 -6 -15 -10 -8 -3 -15 -1 -15 4 0 6 7 10 15 10 8 0 15 -2 15
-4z m-171 -50 c11 -14 6 -15 -27 -7 -4 1 8 21 12 21 2 0 9 -6 15 -14z m-24
-26 c3 -5 1 -10 -4 -10 -6 0 -11 5 -11 10 0 6 2 10 4 10 3 0 8 -4 11 -10z m26
-37 c13 -17 13 -17 -6 -3 -11 8 -22 16 -24 17 -2 2 0 3 6 3 6 0 17 -8 24 -17z
m-6 -23 c3 -5 2 -10 -4 -10 -5 0 -13 5 -16 10 -3 6 -2 10 4 10 5 0 13 -4 16
-10z m-1 -66 c3 -8 2 -12 -4 -9 -6 3 -10 10 -10 16 0 14 7 11 14 -7z m10 -32
c2 -4 -5 -9 -17 -9 -17 -2 -19 0 -7 7 18 12 18 12 24 2z m-4 -32 c0 -5 -7 -10
-15 -10 -19 0 -8 -28 13 -33 15 -4 15 -5 0 -6 -10 0 -22 8 -28 18 -8 16 -6 22
7 30 23 13 23 13 23 1z m-20 -72 c0 -4 -4 -8 -9 -8 -6 0 -12 4 -15 8 -3 5 1 9
9 9 8 0 15 -4 15 -9z m26 -20 c4 -7 3 -8 -4 -4 -7 4 -12 3 -12 -3 0 -5 6 -12
13 -14 9 -4 9 -6 0 -6 -15 -1 -26 16 -18 29 8 13 12 13 21 -2z m-6 -70 c0 -5
-8 -8 -17 -8 -14 0 -15 2 -4 9 9 6 10 11 2 15 -6 4 -11 12 -11 19 0 12 29 -23
30 -35z m27 6 c2 -13 1 -15 -4 -4 -3 8 -11 19 -17 23 -7 6 -6 7 4 4 8 -2 16
-12 17 -23z m-7 -28 c0 -2 -7 -7 -16 -10 -8 -3 -12 -2 -9 4 6 10 25 14 25 6z
m180 -6 c0 -5 -5 -10 -11 -10 -5 0 -7 5 -4 10 3 6 8 10 11 10 2 0 4 -4 4 -10z
m-165 -21 c11 -16 1 -19 -13 -3 -7 8 -8 14 -3 14 5 0 13 -5 16 -11z m45 -3 c0
-3 -4 -8 -10 -11 -5 -3 -10 -1 -10 4 0 6 5 11 10 11 6 0 10 -2 10 -4z"/>
<path d="M3260 8790 c0 -5 5 -10 11 -10 5 0 7 5 4 10 -3 6 -8 10 -11 10 -2 0
-4 -4 -4 -10z"/>
<path d="M3484 8775 c-10 -30 -10 -49 -1 -61 4 -6 3 -23 -2 -37 -7 -18 -7 -27
2 -30 9 -3 9 -7 0 -19 -7 -8 -10 -18 -6 -21 10 -11 23 -8 21 4 -2 6 3 13 10
15 7 1 8 0 2 -3 -5 -2 -8 -9 -5 -13 3 -5 -4 -14 -15 -20 -17 -9 -18 -13 -7
-31 8 -13 9 -22 2 -27 -12 -9 -14 -62 -2 -62 4 0 6 -4 3 -9 -3 -5 1 -12 10
-15 9 -3 12 -11 8 -18 -5 -7 -2 -9 9 -5 15 6 34 -20 22 -31 -3 -3 -5 -1 -5 5
0 6 -9 13 -21 16 -12 3 -18 10 -14 16 3 6 2 11 -3 11 -15 0 -22 -28 -9 -33 9
-3 9 -7 -1 -19 -10 -13 -10 -17 3 -22 9 -3 15 0 15 9 0 8 5 15 10 15 7 0 7 -7
0 -20 -6 -11 -15 -18 -21 -15 -5 4 -9 2 -9 -4 0 -5 6 -12 13 -14 6 -3 3 -6 -8
-6 -19 -1 -18 -3 4 -20 23 -18 22 -49 -1 -35 -7 5 -9 1 -5 -9 3 -9 1 -18 -6
-20 -7 -2 6 -3 28 -2 l40 2 0 51 c0 29 3 52 8 52 4 0 5 6 0 13 -4 6 -6 22 -4
35 1 13 -3 30 -11 39 -9 12 -10 15 0 9 9 -5 12 6 12 46 0 30 -6 60 -12 67 -8
9 -8 11 -2 8 18 -10 23 16 8 37 -7 11 -11 22 -9 27 3 4 -3 10 -14 14 -23 7
-35 32 -20 41 6 3 13 3 16 0 4 -3 1 -6 -6 -6 -7 0 -9 -5 -6 -10 4 -6 11 -7 17
-4 6 4 8 2 5 -3 -4 -6 0 -14 8 -17 8 -3 15 -9 14 -13 -3 -20 2 -34 11 -28 6 4
8 11 5 16 -4 5 -1 9 4 9 18 0 12 18 -6 23 -14 4 -12 5 5 6 13 1 22 7 22 17 0
8 5 12 10 9 6 -3 10 3 10 14 0 11 4 23 10 26 6 4 7 -1 3 -12 -7 -17 -6 -17 20
0 15 9 27 15 27 12 0 -2 11 0 25 5 16 6 26 6 31 -1 10 -17 34 11 30 35 -3 11
-5 24 -5 28 -1 4 -13 4 -28 2 -16 -3 -36 -6 -46 -7 -10 -1 -15 -7 -12 -15 2
-7 -2 -15 -10 -18 -8 -4 -12 -10 -9 -15 3 -5 -2 -6 -12 -2 -14 5 -13 8 6 18
13 7 18 15 13 18 -15 9 -83 -41 -83 -61 0 -15 2 -15 11 -2 9 13 10 13 6 0 -2
-8 -11 -15 -20 -15 -8 0 -19 -4 -23 -8 -4 -4 1 -7 11 -7 10 0 16 -3 12 -6 -3
-4 -14 -4 -23 0 -11 4 -13 10 -6 19 15 20 11 49 -7 42 -14 -5 -14 -4 0 7 8 7
15 23 15 34 0 29 -52 28 -62 -1z m41 -14 c-3 -6 -10 -9 -15 -6 -5 3 -8 -4 -7
-15 1 -11 7 -20 14 -20 7 0 13 -5 13 -10 0 -7 -6 -7 -19 -1 -21 12 -23 58 -2
53 9 -2 11 3 7 15 -6 14 -4 15 5 6 6 -6 8 -16 4 -22z m180 0 c3 -5 0 -13 -6
-17 -7 -4 -9 -3 -5 4 3 5 0 13 -6 15 -9 4 -10 6 -1 6 6 1 14 -3 18 -8z m29
-17 c3 -8 2 -12 -4 -9 -6 3 -10 10 -10 16 0 14 7 11 14 -7z m-209 -164 c-27
-12 -43 -12 -25 0 8 5 22 9 30 9 10 0 8 -3 -5 -9z m0 -30 c3 -5 1 -10 -4 -10
-6 0 -11 5 -11 10 0 6 2 10 4 10 3 0 8 -4 11 -10z m5 -30 c-8 -5 -18 -6 -23
-3 -4 3 -7 -3 -5 -13 2 -11 11 -24 22 -30 17 -10 17 -12 2 -17 -10 -4 -15 -3
-12 2 3 5 0 11 -8 14 -10 4 -16 50 -7 52 0 1 11 2 23 2 17 2 19 0 8 -7z m10
-20 c0 -5 -5 -10 -11 -10 -5 0 -7 5 -4 10 3 6 8 10 11 10 2 0 4 -4 4 -10z
m-14 -156 c-3 -15 -8 -29 -11 -32 -3 -3 -3 5 -1 19 2 13 5 27 5 32 1 4 3 7 6
7 3 0 3 -12 1 -26z m11 -56 c-3 -7 -5 -2 -5 12 0 14 2 19 5 13 2 -7 2 -19 0
-25z m-7 -22 c0 -3 -4 -8 -10 -11 -5 -3 -10 -1 -10 4 0 6 5 11 10 11 6 0 10
-2 10 -4z"/>
<path d="M4020 8787 c0 -5 -4 -5 -10 -2 -6 4 -7 -1 -3 -12 6 -15 4 -16 -9 -5
-16 13 -48 7 -48 -10 0 -6 -7 -8 -15 -4 -8 3 -20 -3 -28 -14 -8 -11 -17 -17
-22 -12 -5 4 -5 1 -1 -6 4 -7 12 -10 17 -7 5 3 6 -1 3 -9 -7 -19 26 -22 44 -4
7 7 12 8 12 4 0 -5 11 -1 25 8 13 9 36 17 50 18 14 1 25 8 25 15 0 7 -5 12
-11 11 -6 -2 -14 4 -16 12 -4 12 -3 12 5 2 5 -8 13 -13 18 -12 4 1 11 -7 15
-17 4 -10 8 -12 8 -5 1 8 6 10 14 5 6 -4 26 -8 42 -9 60 -1 110 -43 121 -99 4
-21 12 -31 25 -32 10 -1 18 4 16 10 -1 7 6 11 16 11 20 -2 21 8 5 53 -9 24
-18 33 -34 33 -26 0 -40 15 -23 26 8 4 9 3 5 -4 -5 -8 1 -12 14 -12 20 0 20 1
5 16 -8 9 -22 13 -30 10 -8 -3 -17 0 -21 6 -4 7 -3 8 4 4 7 -4 12 -3 12 2 0 5
-8 12 -17 16 -10 3 -24 9 -30 12 -8 3 -13 -1 -13 -10 0 -20 -17 -29 -26 -15
-5 8 -3 9 5 4 9 -5 12 -2 9 10 -1 10 -9 20 -17 23 -9 3 -11 0 -6 -8 6 -10 4
-11 -6 -4 -17 11 -129 12 -129 1z m84 -10 c-3 -8 4 -13 17 -14 18 -2 19 0 7
15 -12 15 -11 16 4 3 21 -16 14 -32 -12 -28 -25 4 -34 13 -25 26 9 15 15 14 9
-2z m-118 -19 c4 -7 3 -8 -4 -4 -7 4 -12 2 -12 -5 0 -7 -3 -10 -6 -6 -6 5 3
27 11 27 2 0 7 -5 11 -12z m233 -20 c-2 -2 9 -16 24 -32 15 -16 24 -32 21 -35
-4 -3 -9 0 -11 7 -3 7 -12 20 -21 29 -9 8 -17 25 -18 37 -2 11 0 15 2 9 3 -7
4 -14 3 -15z m62 -111 c-10 -9 -11 -8 -5 6 3 10 9 15 12 12 3 -3 0 -11 -7 -18z"/>
<path d="M4566 8788 c3 -4 0 -8 -6 -8 -6 0 -9 -4 -5 -10 3 -5 13 -7 23 -4 15
5 15 4 2 -8 -12 -10 -15 -35 -15 -105 0 -57 -3 -93 -10 -93 -5 0 -3 -5 5 -10
13 -9 13 -11 0 -20 -8 -5 -10 -10 -4 -10 7 0 11 -19 9 -52 -1 -29 2 -61 7 -72
7 -12 7 -16 0 -12 -7 4 -9 -4 -7 -21 2 -16 4 -32 4 -36 1 -5 6 -5 13 -1 7 5 8
3 4 -5 -5 -7 -15 -10 -23 -7 -9 4 -11 2 -6 -7 4 -6 8 -23 8 -37 1 -21 5 -25
30 -24 17 1 33 2 36 3 3 1 4 12 1 26 -2 14 -8 22 -13 19 -5 -3 -9 0 -9 5 0 6
7 11 15 11 13 0 14 4 5 20 -6 11 -7 20 -2 20 4 0 8 9 8 20 0 22 -12 27 -19 8
-2 -7 -3 -5 -1 5 2 13 -2 17 -12 13 -8 -3 -14 -1 -14 5 0 7 10 9 23 6 22 -6
22 -5 22 93 0 60 -4 98 -10 97 -16 -3 -11 46 5 50 9 3 11 1 5 -4 -17 -14 -18
-43 0 -37 8 3 12 10 9 15 -3 5 0 9 7 9 7 0 10 3 6 6 -3 3 7 20 23 38 17 17 30
34 30 38 0 4 7 4 17 1 11 -5 14 -3 8 6 -5 10 -2 11 14 6 13 -4 21 -2 21 5 0 6
-4 9 -9 5 -5 -3 -13 0 -17 6 -4 8 -3 9 4 5 7 -4 12 -2 12 3 0 6 -5 11 -12 11
-6 0 -8 3 -4 7 4 5 14 0 21 -11 11 -14 29 -19 76 -21 34 -2 64 -7 68 -11 10
-14 34 -16 25 -3 -4 8 -3 9 4 5 7 -4 12 -13 12 -20 0 -7 8 -20 18 -29 15 -13
21 -14 32 -4 8 6 6 2 -3 -10 -13 -15 -15 -23 -7 -28 6 -4 9 -14 6 -22 -3 -8
-1 -11 4 -8 12 8 12 3 1 -29 -7 -15 -6 -26 0 -28 6 -2 5 -16 -1 -37 -5 -18 -7
-31 -3 -27 3 3 13 -3 21 -15 9 -14 11 -24 4 -31 -6 -6 -12 -6 -17 3 -5 8 -4
10 3 5 7 -4 12 -3 12 3 0 5 -4 13 -10 16 -10 6 -15 -10 -10 -30 8 -34 6 -104
-3 -98 -6 4 -7 1 -1 -8 12 -19 13 -69 0 -69 -24 0 7 -12 39 -16 33 -3 35 -1
23 13 -9 12 -9 15 -1 9 10 -5 13 14 12 83 0 50 -5 91 -10 91 -5 0 -9 4 -9 10
0 5 7 7 15 4 11 -5 14 -2 9 12 -4 11 -12 25 -18 33 -8 11 -8 13 2 7 9 -5 12 4
12 38 0 44 -12 67 -25 46 -3 -5 -11 -10 -18 -10 -6 0 -2 6 8 14 11 8 23 12 27
10 5 -3 8 2 8 10 0 8 -5 18 -11 21 -6 4 -8 13 -5 20 2 7 2 16 -2 20 -4 4 -7
10 -7 14 0 26 -106 108 -125 96 -5 -3 -11 -1 -15 5 -8 12 -139 4 -166 -11 -11
-5 -17 -15 -13 -21 7 -10 -13 -28 -31 -28 -5 1 -2 5 8 11 9 6 15 14 12 19 -7
12 -42 -17 -67 -55 -11 -16 -18 -22 -14 -12 3 9 1 17 -4 17 -5 0 -14 -8 -19
-17 -10 -17 -10 -17 -11 0 0 9 5 17 11 17 5 0 7 5 3 12 -4 7 -3 8 4 4 8 -5 12
5 12 31 0 37 -1 38 -34 38 -19 0 -32 -3 -30 -7z m333 -12 c9 -10 9 -16 1 -21
-6 -4 -14 -4 -17 -1 -4 3 -1 6 6 6 7 0 9 5 6 10 -4 6 -11 8 -16 5 -5 -4 -9 -1
-9 4 0 15 15 14 29 -3z m-34 -15 c3 -5 0 -13 -6 -17 -8 -4 -9 -3 -5 4 5 8 -1
12 -14 12 -13 0 -19 -4 -14 -12 4 -7 3 -8 -5 -4 -16 10 -4 26 19 26 10 0 21
-4 25 -9z m-245 -15 c0 -2 -7 -6 -15 -10 -8 -3 -15 -1 -15 4 0 6 7 10 15 10 8
0 15 -2 15 -4z m320 0 c0 -2 -7 -6 -15 -10 -8 -3 -15 -1 -15 4 0 6 7 10 15 10
8 0 15 -2 15 -4z m55 -6 c3 -5 1 -10 -4 -10 -6 0 -11 5 -11 10 0 6 2 10 4 10
3 0 8 -4 11 -10z m-27 -25 c-3 -3 -9 2 -12 12 -6 14 -5 15 5 6 7 -7 10 -15 7
-18z m-287 -18 c-10 -9 -11 -8 -5 6 3 10 9 15 12 12 3 -3 0 -11 -7 -18z m348
9 c10 -12 8 -14 -14 -12 -14 2 -29 7 -33 11 -4 4 4 4 17 0 16 -5 21 -4 17 4
-10 16 -1 14 13 -3z m-364 -37 c-4 -5 -12 -9 -18 -8 -9 0 -8 2 1 6 6 2 9 10 6
15 -4 7 -2 8 5 4 6 -4 9 -12 6 -17z m357 -31 c-6 -6 -12 -5 -17 3 -5 8 -4 10
3 5 8 -5 12 1 13 16 1 18 2 19 6 4 3 -10 0 -23 -5 -28z m-403 22 c-6 -5 -18
-6 -26 -3 -19 8 -16 11 13 11 17 0 22 -3 13 -8z m-19 -40 c0 -5 -2 -10 -4 -10
-3 0 -8 5 -11 10 -3 6 -1 10 4 10 6 0 11 -4 11 -10z m445 0 c-3 -5 -11 -10
-16 -10 -6 0 -7 5 -4 10 3 6 11 10 16 10 6 0 7 -4 4 -10z m-457 -35 c-3 -3 -9
2 -12 12 -6 14 -5 15 5 6 7 -7 10 -15 7 -18z m19 -17 c-3 -8 -6 -5 -6 6 -1 11
2 17 5 13 3 -3 4 -12 1 -19z m423 -2 c0 -3 -4 -8 -10 -11 -5 -3 -10 -1 -10 4
0 6 5 11 10 11 6 0 10 -2 10 -4z m20 -16 c-13 -9 -13 -11 0 -20 9 -6 10 -10 3
-10 -15 0 -26 17 -18 30 3 6 12 10 18 10 7 0 6 -4 -3 -10z m-420 -4 c0 -3 -4
-8 -10 -11 -5 -3 -10 -1 -10 4 0 6 5 11 10 11 6 0 10 -2 10 -4z m395 -26 c3
-5 1 -10 -4 -10 -6 0 -11 5 -11 10 0 6 2 10 4 10 3 0 8 -4 11 -10z m-444 -43
c-10 -9 -11 -8 -5 6 3 10 9 15 12 12 3 -3 0 -11 -7 -18z m467 5 c2 -7 -1 -12
-8 -12 -6 0 -9 4 -6 9 4 5 1 12 -4 14 -6 3 -5 4 2 3 6 -1 14 -8 16 -14z m-432
-29 c-3 -4 -6 -1 -6 6 0 7 -4 9 -10 6 -6 -4 -7 1 -3 11 6 15 7 15 15 -1 6 -9
7 -19 4 -22z m4 -19 c0 -2 -7 -4 -15 -4 -8 0 -15 4 -15 10 0 5 7 7 15 4 8 -4
15 -8 15 -10z m436 -22 c1 -7 0 -8 -3 -2 -2 5 -9 8 -14 4 -5 -3 -9 0 -9 6 0
15 23 7 26 -8z m-28 -33 c-3 -8 -7 -3 -11 10 -4 17 -3 21 5 13 5 -5 8 -16 6
-23z m22 -19 c0 -5 -8 -10 -17 -10 -15 0 -16 2 -3 10 19 12 20 12 20 0z m-443
-32 c-3 -8 -6 -5 -6 6 -1 11 2 17 5 13 3 -3 4 -12 1 -19z m443 -8 c8 -5 11
-10 5 -10 -5 0 -17 5 -25 10 -8 5 -10 10 -5 10 6 0 17 -5 25 -10z m0 -40 c-8
-5 -19 -10 -25 -10 -5 0 -3 5 5 10 8 5 20 10 25 10 6 0 3 -5 -5 -10z"/>
<path d="M5390 8793 c-19 -3 -39 -9 -45 -15 -7 -8 -5 -9 8 -5 9 4 17 2 17 -4
0 -6 -11 -8 -28 -4 -22 4 -33 0 -57 -25 -29 -31 -43 -65 -22 -54 7 3 5 0 -3
-8 -22 -19 -17 -71 11 -113 25 -36 38 -44 104 -59 11 -2 20 -5 20 -6 0 -2 65
-16 128 -26 20 -4 37 -11 37 -16 0 -5 9 -7 19 -3 11 3 22 1 26 -4 4 -7 0 -8
-10 -4 -16 5 -16 3 -2 -23 10 -20 12 -36 6 -52 -6 -15 -5 -21 1 -17 6 3 10 1
10 -4 0 -6 -6 -11 -13 -11 -7 0 -22 -8 -33 -18 -10 -9 -26 -17 -34 -17 -8 1
-20 -3 -27 -8 -7 -5 -19 -4 -30 2 -11 5 -25 6 -33 1 -8 -5 -22 -4 -33 2 -14 7
-17 7 -13 -1 4 -6 2 -11 -3 -11 -6 0 -11 5 -11 11 0 6 -7 9 -15 5 -8 -3 -15
-1 -15 5 0 6 -5 7 -10 4 -6 -4 -8 -11 -5 -16 4 -5 2 -9 -4 -9 -16 0 -22 18 -9
23 7 2 10 8 6 12 -4 4 -15 2 -25 -6 -15 -12 -16 -12 -11 2 4 11 -2 20 -18 28
-15 7 -23 7 -19 1 3 -6 -1 -13 -9 -16 -20 -8 -21 -44 -1 -44 9 0 12 6 9 18 -5
14 -4 14 4 2 6 -8 8 -18 6 -22 -9 -14 40 -27 55 -14 11 8 13 8 8 -1 -4 -6 -3
-14 3 -18 20 -12 82 -15 103 -3 19 10 20 9 10 -4 -10 -12 -10 -15 2 -15 8 0
15 5 15 10 0 5 7 4 15 -3 12 -10 17 -6 28 21 11 27 14 30 20 16 4 -11 3 -16
-3 -12 -6 3 -10 -1 -10 -9 0 -18 15 -21 25 -6 3 5 13 6 22 3 11 -4 14 -2 11 8
-3 8 -11 14 -18 14 -7 0 -15 7 -17 15 -4 13 -3 13 6 0 6 -8 11 -11 11 -7 0 5
10 1 21 -7 17 -11 25 -12 40 -3 11 7 19 17 19 23 0 7 7 15 16 18 8 3 13 10 10
15 -4 5 -2 11 4 13 10 3 14 29 11 81 0 17 -5 26 -12 22 -6 -4 -9 -1 -7 8 4 22
-53 68 -76 61 -12 -4 -16 -2 -12 5 4 6 0 11 -9 11 -9 0 -13 -5 -10 -10 4 -6
-8 -2 -27 10 -31 18 -33 19 -40 2 -6 -15 -7 -15 -7 2 -1 13 -6 17 -21 13 -10
-3 -22 0 -25 7 -3 6 -3 1 -1 -11 5 -27 -11 -40 -27 -24 -9 9 -8 11 5 6 13 -5
15 -2 11 16 l-6 22 -19 -22 c-10 -13 -18 -18 -18 -13 0 6 5 14 10 17 17 11 11
20 -22 34 -46 19 -52 19 -60 -4 -6 -17 -7 -16 -5 5 1 14 8 24 15 22 8 -1 12 8
10 27 -1 16 -6 27 -10 25 -4 -3 -8 -1 -8 4 0 6 7 12 15 16 8 3 15 10 15 15 0
6 -7 8 -15 5 -10 -4 -15 0 -15 10 0 14 -4 15 -22 6 -22 -11 -22 -11 -3 5 16
13 22 13 30 3 5 -8 16 -13 23 -12 6 1 17 2 23 3 5 0 7 6 4 11 -5 8 31 15 58
11 4 0 7 6 7 14 0 8 -5 14 -11 13 -6 -2 -13 3 -14 10 -2 7 -1 8 2 2 2 -5 9 -8
13 -5 5 3 14 -4 20 -15 8 -16 15 -19 24 -11 7 6 15 9 17 7 2 -2 22 -7 44 -10
22 -4 57 -15 77 -25 32 -15 38 -16 43 -3 4 10 0 12 -10 8 -9 -3 -13 -2 -10 4
3 6 13 10 21 10 8 0 14 7 14 15 0 9 -6 12 -17 8 -11 -4 -14 -3 -9 5 4 7 1 12
-8 12 -26 0 -30 1 -45 13 -12 9 -13 9 -7 0 4 -7 2 -13 -3 -13 -6 0 -11 8 -11
18 0 14 -2 15 -10 2 -5 -8 -10 -10 -10 -4 0 7 -15 11 -35 11 -35 -1 -46 -11
-22 -20 9 -4 9 -6 -1 -6 -7 -1 -15 6 -18 14 -4 8 -11 14 -18 13 -6 0 -27 -3
-46 -5z m60 -38 c0 -5 -5 -3 -10 5 -5 8 -10 20 -10 25 0 6 5 3 10 -5 5 -8 10
-19 10 -25z m54 3 c-3 -4 -11 -8 -17 -7 -9 0 -9 2 0 5 7 3 9 13 6 22 -4 14 -3
14 5 2 6 -8 8 -18 6 -22z m41 3 c3 -5 0 -13 -6 -17 -7 -4 -9 -3 -5 4 3 5 0 13
-6 15 -9 4 -10 6 -1 6 6 1 14 -3 18 -8z m-228 -16 c0 -8 -4 -12 -9 -9 -5 3 -6
10 -3 15 9 13 12 11 12 -6z m267 -6 c-3 -5 -10 -7 -15 -3 -5 3 -7 10 -3 15 3
5 10 7 15 3 5 -3 7 -10 3 -15z m-240 -4 c-4 -8 -8 -15 -10 -15 -2 0 -4 7 -4
15 0 8 4 15 10 15 5 0 7 -7 4 -15z m257 -8 c-10 -9 -11 -8 -5 6 3 10 9 15 12
12 3 -3 0 -11 -7 -18z m-314 -68 c0 -21 -3 -26 -9 -16 -4 9 -5 22 -2 31 9 23
11 20 11 -15z m-19 -45 c-3 -14 -5 -12 -10 9 -3 19 -2 25 4 19 6 -6 8 -18 6
-28z m97 -54 c4 -6 -1 -7 -12 -3 -16 6 -17 5 -3 -13 14 -18 14 -18 -2 -5 -10
7 -15 17 -12 22 7 12 21 11 29 -1z m-45 -20 c0 -5 -2 -10 -4 -10 -3 0 -8 5
-11 10 -3 6 -1 10 4 10 6 0 11 -4 11 -10z m186 -39 c-4 -6 -13 -11 -19 -10 -9
0 -9 2 0 5 7 3 9 13 6 22 -5 13 -3 14 7 5 7 -6 9 -16 6 -22z m-41 10 c3 -5 0
-13 -6 -17 -8 -5 -9 -3 -4 6 6 10 4 12 -9 7 -10 -4 -15 -3 -11 3 8 13 22 13
30 1z m150 -30 c-6 -5 -25 10 -25 20 0 5 6 4 14 -3 8 -7 12 -15 11 -17z m-35
4 c9 -10 9 -15 1 -15 -6 0 -11 4 -11 9 0 5 -8 12 -17 14 -15 4 -15 5 -2 6 9 0
22 -6 29 -14z m56 -39 c7 -15 8 -29 2 -38 -7 -10 -8 -10 -6 2 1 8 -3 25 -10
38 -7 12 -9 22 -5 22 4 0 13 -11 19 -24z m-6 -66 c0 -5 -4 -10 -10 -10 -5 0
-10 5 -10 10 0 6 5 10 10 10 6 0 10 -4 10 -10z m30 -25 c0 -5 -5 -3 -10 5 -5
8 -10 20 -10 25 0 6 5 3 10 -5 5 -8 10 -19 10 -25z m-34 -33 c-10 -11 -16 -12
-16 -4 0 7 5 12 10 12 6 0 10 8 11 18 0 11 2 13 6 4 3 -8 -2 -21 -11 -30z
m-30 -4 c5 -7 3 -8 -6 -3 -10 6 -12 4 -7 -8 3 -10 2 -17 -3 -17 -11 0 -13 23
-3 33 9 9 11 9 19 -5z m-131 -39 c-8 -11 -42 -12 -49 0 -3 4 6 6 21 3 19 -4
24 -2 18 8 -5 9 -4 11 4 6 6 -4 9 -12 6 -17z m136 -2 c-10 -9 -11 -8 -5 6 3
10 9 15 12 12 3 -3 0 -11 -7 -18z m-231 4 c0 -5 -7 -11 -14 -14 -10 -4 -13 -1
-9 9 6 15 23 19 23 5z m40 -19 c0 -4 -9 -8 -19 -8 -11 0 -17 4 -15 8 3 4 12 8
20 8 8 0 14 -4 14 -8z"/>
<path d="M5843 8781 c3 -13 1 -34 -4 -45 -10 -21 -10 -21 7 -1 l17 20 -8 -20
c-4 -11 -8 -31 -9 -45 -1 -14 -5 -29 -11 -33 -5 -5 1 -5 13 -2 l24 7 -22 -22
c-12 -12 -19 -25 -15 -28 3 -4 10 0 15 8 6 8 10 12 10 7 0 -4 -6 -16 -12 -27
-11 -16 -9 -22 7 -36 16 -12 16 -14 3 -10 -13 4 -16 -1 -16 -23 1 -16 -2 -33
-6 -40 -4 -6 -5 -11 -1 -11 3 0 10 10 16 23 9 21 9 21 3 -3 -3 -14 -7 -34 -8
-46 -1 -11 -6 -26 -11 -34 -5 -9 -4 -11 3 -6 8 5 11 0 9 -16 -2 -13 3 -28 11
-34 12 -9 12 -12 -1 -26 -12 -12 -13 -18 -4 -28 9 -10 9 -11 0 -6 -8 4 -10 -3
-8 -24 3 -21 1 -28 -7 -24 -7 5 -8 3 -3 -5 13 -23 15 -82 2 -74 -7 4 -7 0 2
-10 11 -14 11 -20 0 -33 -12 -15 -11 -16 11 -10 23 6 23 6 8 -7 -23 -19 -23
-30 0 -18 12 6 23 6 33 0 12 -9 12 -10 -1 -6 -23 7 -50 -11 -50 -33 0 -21 22
-40 27 -23 2 5 15 8 30 5 17 -3 24 -1 19 6 -3 5 -7 55 -8 111 0 55 -5 98 -9
95 -5 -3 -9 0 -9 5 0 6 6 11 14 11 9 0 12 8 8 26 l-5 27 -13 -24 c-7 -13 -13
-18 -14 -11 0 6 9 21 21 33 19 19 21 20 33 3 7 -9 18 -14 24 -10 16 10 10 48
-10 70 -10 11 -18 27 -18 36 0 8 -14 28 -31 43 -17 15 -25 27 -19 27 7 0 19
-8 26 -17 12 -16 13 -16 9 6 -2 12 -10 30 -17 39 -10 12 -10 14 0 8 7 -4 12
-1 13 8 1 9 2 24 3 34 1 9 7 26 13 37 6 11 9 34 7 50 -2 17 -1 22 2 13 3 -10
10 -18 16 -18 6 0 8 3 5 6 -16 16 112 92 133 79 6 -3 10 -1 10 5 0 6 5 8 10 5
30 -18 65 -15 81 7 15 20 20 21 31 9 11 -12 10 -13 -4 -8 -21 7 -30 -14 -13
-30 7 -6 15 -10 17 -7 6 5 78 -68 78 -79 -1 -12 31 -70 47 -85 8 -8 11 -17 7
-21 -4 -3 -9 0 -11 7 -3 6 -9 12 -14 12 -5 0 -5 -10 1 -24 5 -13 7 -26 4 -29
-3 -2 -7 -16 -10 -31 -3 -17 0 -25 8 -24 18 4 18 -41 -1 -52 -14 -8 -14 -11
-1 -20 9 -6 10 -10 3 -10 -19 0 -27 22 -12 34 8 6 15 19 17 28 4 26 -21 12
-35 -19 -11 -23 -10 -30 5 -47 9 -10 12 -16 5 -13 -6 4 -18 -2 -26 -14 l-15
-21 -7 21 c-6 19 -8 19 -21 6 -15 -14 -29 -19 -48 -16 -5 1 -6 -5 -3 -14 7
-18 -4 -20 -20 -4 -8 8 -14 6 -22 -10 -12 -22 -41 -19 -41 5 0 8 -6 11 -15 8
-8 -4 -12 -10 -9 -15 3 -5 0 -9 -5 -9 -6 0 -11 7 -11 15 0 21 -20 19 -21 -2 0
-14 -3 -12 -10 5 -5 13 -13 20 -19 17 -5 -3 -10 0 -10 8 0 8 -7 18 -16 21 -22
9 -26 8 -19 -5 4 -5 -1 -19 -11 -30 -14 -16 -15 -19 -2 -19 8 0 23 -9 32 -19
17 -19 38 -22 52 -8 11 10 24 8 24 -4 0 -5 -5 -7 -12 -3 -7 4 -8 3 -4 -5 4 -6
16 -9 26 -6 10 3 21 2 24 -4 5 -7 41 -8 41 -1 0 1 18 3 40 5 22 2 41 8 43 14
2 6 8 11 13 11 6 0 7 -6 3 -12 -4 -7 2 -5 14 6 12 10 19 23 15 29 -3 6 -1 7 5
3 7 -4 22 0 34 8 12 9 19 16 16 16 -4 0 6 14 22 32 24 25 27 35 18 51 -8 15
-6 23 8 36 17 15 17 15 5 -2 -8 -9 -11 -20 -7 -24 9 -9 14 -1 21 35 4 26 3 30
-12 25 -11 -4 -14 -3 -9 5 4 7 15 12 24 12 15 1 15 2 -2 15 -21 16 -31 51 -17
59 4 3 7 -6 5 -19 -1 -14 2 -25 6 -25 13 0 21 16 12 24 -4 4 -8 16 -8 27 -1
10 -2 28 -3 39 -1 22 -26 27 -35 8 -4 -9 -5 -8 -5 2 2 30 -1 41 -11 35 -6 -3
-7 1 -4 10 4 10 2 15 -6 13 -7 -2 -14 3 -15 10 -2 7 -1 8 2 2 5 -12 23 -4 23
11 0 5 -7 9 -16 9 -9 0 -12 5 -8 12 5 7 2 9 -9 5 -10 -4 -14 -2 -11 6 2 7 -10
20 -26 29 -19 11 -28 13 -25 5 4 -6 -1 -3 -9 7 -9 11 -16 17 -16 14 0 -4 -13
-3 -30 2 -21 6 -30 5 -30 -3 0 -9 -2 -9 -8 0 -10 15 -80 12 -86 -4 -3 -7 -11
-13 -18 -13 -9 0 -9 3 2 11 12 9 11 9 -5 4 -11 -4 -26 -8 -32 -8 -7 0 -13 -4
-13 -9 0 -4 -7 -8 -15 -8 -8 0 -15 -5 -15 -11 0 -5 4 -7 10 -4 5 3 7 0 4 -9
-4 -11 0 -13 18 -10 21 4 21 4 3 -5 -14 -6 -23 -5 -32 6 -11 14 -14 14 -27 0
-18 -17 -11 -28 12 -20 9 4 13 2 9 -4 -3 -5 -20 -10 -36 -11 -23 0 -29 3 -24
15 5 12 3 14 -7 8 -10 -6 -11 -4 -4 6 5 8 9 28 10 45 1 27 -2 32 -22 30 -24
-1 -35 -16 -12 -16 6 0 8 -3 4 -7 -4 -5 -15 1 -23 12 -15 20 -15 19 -10 -4z
m282 -1 c-3 -5 -12 -10 -18 -10 -7 0 -6 4 3 10 19 12 23 12 15 0z m-100 -20
c-3 -5 -12 -10 -18 -10 -7 0 -6 4 3 10 19 12 23 12 15 0z m65 0 c0 -5 -4 -10
-10 -10 -5 0 -10 5 -10 10 0 6 5 10 10 10 6 0 10 -4 10 -10z m55 0 c-3 -5 -11
-10 -16 -10 -6 0 -7 5 -4 10 3 6 11 10 16 10 6 0 7 -4 4 -10z m-261 -30 c-6
-6 -10 -3 -10 10 0 13 4 16 10 10 7 -7 7 -13 0 -20z m286 20 c0 -5 -5 -10 -11
-10 -5 0 -7 5 -4 10 3 6 8 10 11 10 2 0 4 -4 4 -10z m-110 -4 c0 -2 -7 -6 -15
-10 -8 -3 -15 -1 -15 4 0 6 7 10 15 10 8 0 15 -2 15 -4z m213 -2 c8 -8 -3 -34
-15 -34 -6 0 -5 7 3 16 11 13 9 15 -17 9 -23 -4 -25 -3 -9 4 25 12 30 13 38 5z
m-393 -38 c0 -3 -4 -8 -10 -11 -5 -3 -10 -1 -10 4 0 6 5 11 10 11 6 0 10 -2
10 -4z m420 -5 c0 -6 -4 -12 -8 -15 -5 -3 -9 1 -9 9 0 8 4 15 9 15 4 0 8 -4 8
-9z m-410 -21 c0 -5 -8 -10 -17 -10 -15 0 -16 2 -3 10 19 12 20 12 20 0z m16
-36 c-3 -8 -10 -13 -15 -9 -5 3 -12 -5 -14 -17 -5 -20 -5 -20 -3 2 1 14 7 24
14 23 6 -2 12 7 13 20 0 12 3 16 6 9 3 -7 2 -20 -1 -28z m409 16 c3 -6 -1 -7
-9 -4 -18 7 -21 14 -7 14 6 0 13 -4 16 -10z m25 -24 c0 -2 -7 -7 -16 -10 -8
-3 -12 -2 -9 4 6 10 25 14 25 6z m-410 -10 c0 -3 -4 -8 -10 -11 -5 -3 -10 -1
-10 4 0 6 5 11 10 11 6 0 10 -2 10 -4z m-25 -26 c3 -5 1 -10 -4 -10 -6 0 -11
5 -11 10 0 6 2 10 4 10 3 0 8 -4 11 -10z m440 1 c3 -5 0 -13 -6 -17 -7 -4 -9
-3 -5 4 3 5 0 13 -6 15 -9 4 -10 6 -1 6 6 1 14 -3 18 -8z m25 -16 c0 -8 -4
-15 -10 -15 -5 0 -7 7 -4 15 4 8 8 15 10 15 2 0 4 -7 4 -15z m-485 -5 c13 -6
15 -9 5 -9 -8 0 -22 4 -30 9 -18 12 -2 12 25 0z m11 -35 c-11 -8 -25 -15 -30
-15 -6 1 0 7 14 15 32 19 40 18 16 0z m468 -55 c-6 -6 -10 -3 -10 10 0 13 4
16 10 10 7 -7 7 -13 0 -20z m2 -38 c-4 -3 -14 2 -24 12 -16 18 -16 18 6 6 13
-6 21 -14 18 -18z m-482 2 c9 -24 2 -26 -12 -4 -7 11 -8 20 -3 20 5 0 12 -7
15 -16z m-4 -46 c0 -4 7 -4 17 -1 11 4 14 3 9 -5 -12 -20 -25 -14 -41 21 -14
28 -14 30 0 13 8 -11 15 -23 15 -28z m5 -36 c-3 -3 -11 0 -18 7 -9 10 -8 11 6
5 10 -3 15 -9 12 -12z m53 -2 c7 -12 8 -20 2 -20 -5 0 -10 4 -10 10 0 5 -7 7
-15 4 -8 -4 -12 -11 -8 -18 3 -6 2 -7 -2 -3 -5 4 -15 -3 -22 -15 -7 -13 -12
-17 -13 -10 0 7 11 24 24 37 13 13 21 26 18 29 -3 3 -1 6 4 6 5 0 15 -9 22
-20z m432 16 c0 -3 -4 -8 -10 -11 -5 -3 -10 -1 -10 4 0 6 5 11 10 11 6 0 10
-2 10 -4z m-67 -71 c-3 -9 -8 -14 -10 -11 -3 3 -2 9 2 15 9 16 15 13 8 -4z
m-298 -15 c3 -5 2 -10 -4 -10 -5 0 -13 5 -16 10 -3 6 -2 10 4 10 5 0 13 -4 16
-10z m248 3 c-7 -2 -19 -2 -25 0 -7 3 -2 5 12 5 14 0 19 -2 13 -5z m-231 -35
c-7 -7 -12 -8 -12 -2 0 14 12 26 19 19 2 -3 -1 -11 -7 -17z m139 -1 c-10 -9
-11 -8 -5 6 3 10 9 15 12 12 3 -3 0 -11 -7 -18z m60 9 c-13 -16 -54 -29 -45
-15 3 5 12 9 20 9 8 0 14 5 14 10 0 6 5 10 11 10 8 0 8 -4 0 -14z m-96 -16
c13 -6 15 -9 5 -9 -8 0 -22 4 -30 9 -18 12 -2 12 25 0z m-255 -20 c0 -5 -5
-10 -11 -10 -5 0 -7 5 -4 10 3 6 8 10 11 10 2 0 4 -4 4 -10z m20 -40 c0 -5 -8
-10 -17 -10 -15 0 -16 2 -3 10 19 12 20 12 20 0z m0 -40 c0 -5 -7 -7 -15 -4
-8 4 -15 8 -15 10 0 2 7 4 15 4 8 0 15 -4 15 -10z m-33 -112 c-3 -8 -6 -5 -6
6 -1 11 2 17 5 13 3 -3 4 -12 1 -19z"/>
<path d="M6731 8778 c-9 -10 -19 -28 -23 -41 l-6 -22 -1 22 c-1 12 4 25 9 28
6 3 10 11 10 16 0 6 -6 7 -12 2 -7 -4 -16 -8 -20 -9 -5 -1 -11 -2 -15 -3 -5
-1 -1 -6 7 -12 11 -8 8 -9 -13 -4 -17 3 -26 2 -23 -3 3 -6 -3 -12 -14 -15 -17
-4 -19 -9 -11 -30 5 -14 7 -28 4 -31 -10 -10 -33 -7 -33 4 0 5 6 7 14 4 11 -4
13 0 9 15 -3 12 -9 21 -13 21 -9 0 -64 -109 -68 -135 -7 -55 -7 -103 1 -130 4
-16 10 -38 12 -48 7 -32 15 -38 36 -27 10 6 19 8 19 4 0 -3 7 -1 15 6 8 7 12
17 9 22 -4 6 -10 5 -16 -3 -6 -10 -7 -7 -3 9 7 26 -19 54 -42 45 -7 -3 -13 0
-13 7 0 6 3 9 8 6 4 -2 14 1 22 7 18 14 23 79 7 89 -8 5 -6 8 6 8 10 0 15 5
12 10 -4 6 -10 8 -15 5 -5 -3 -14 5 -20 17 -10 21 -10 22 4 5 8 -10 17 -19 20
-20 11 -4 58 74 53 87 -3 8 0 19 6 26 9 10 8 12 -5 7 -10 -4 -18 -2 -18 3 0
11 23 13 33 3 4 -3 2 -12 -4 -19 -7 -8 -7 -14 1 -19 5 -3 10 -1 10 5 0 6 13
16 29 21 19 7 31 19 33 32 2 12 10 21 17 19 9 -2 11 3 7 15 -6 14 -4 15 5 6
13 -13 3 -37 -12 -28 -5 4 -9 -1 -9 -9 0 -22 17 -20 42 4 24 22 44 21 40 -2
-4 -25 38 -16 55 12 13 23 12 11 -4 -28 -3 -7 -2 -12 3 -11 5 1 12 0 17 -1 11
-4 26 -7 36 -9 5 0 13 -10 16 -22 5 -15 10 -17 19 -10 14 11 26 5 26 -13 0 -6
-5 -4 -10 4 -8 13 -10 12 -10 -2 0 -10 5 -18 10 -18 6 0 10 -10 10 -21 0 -17
4 -20 23 -16 21 6 21 6 3 -8 -11 -8 -15 -15 -10 -15 6 0 9 -18 8 -40 -1 -22 2
-40 7 -40 5 0 9 -5 9 -11 0 -5 -4 -8 -8 -5 -4 2 -9 -9 -10 -27 -2 -17 -7 -36
-12 -42 -5 -7 -7 -15 -3 -18 3 -4 1 -7 -5 -7 -5 0 -20 -16 -32 -36 -12 -19
-25 -33 -28 -30 -10 11 -31 -16 -25 -32 5 -14 3 -13 -9 2 -14 18 -15 17 -42
-8 -28 -25 -46 -26 -46 -3 0 8 3 8 9 -2 6 -9 11 -10 15 -2 4 6 4 11 -1 12 -44
4 -61 3 -57 -3 3 -4 0 -8 -5 -8 -6 0 -11 5 -11 10 0 6 -3 9 -7 9 -23 -4 -41 4
-67 26 -27 23 -74 36 -62 17 2 -4 0 -14 -5 -22 -7 -11 -8 -9 -6 9 2 14 12 28
22 31 17 6 17 7 2 13 -9 3 -19 2 -22 -4 -4 -5 -10 -7 -14 -5 -4 3 -13 1 -20
-4 -11 -6 -10 -13 5 -33 11 -14 28 -27 39 -29 11 -2 19 -8 18 -13 -1 -6 12
-18 28 -28 17 -9 27 -12 24 -7 -3 6 -1 10 4 10 6 0 11 -6 11 -12 0 -9 4 -8 10
2 8 13 10 12 10 -4 0 -15 3 -16 15 -6 13 11 13 14 -2 26 -10 7 -13 13 -8 13 6
0 18 -6 28 -13 15 -12 16 -14 2 -20 -8 -3 -15 -11 -15 -18 0 -9 3 -9 11 -1 6
6 17 9 25 6 9 -3 12 3 8 23 -3 16 -2 26 1 22 6 -5 11 -24 14 -49 2 -10 31 -6
31 4 0 5 7 7 15 3 8 -3 31 1 52 8 30 10 37 18 35 35 -2 11 1 21 7 21 6 0 8 -7
5 -15 -4 -8 -1 -15 5 -15 6 0 11 5 11 12 0 6 3 9 6 5 8 -8 34 18 34 33 0 6 -4
8 -10 5 -6 -3 -7 1 -4 10 6 14 8 14 20 -2 8 -12 13 -13 14 -5 0 7 8 24 17 39
10 14 19 35 20 47 2 11 7 23 11 26 14 10 12 30 -3 30 -8 0 -14 -6 -12 -12 1
-7 -4 -13 -12 -13 -8 0 -15 6 -17 13 -1 7 0 8 3 2 2 -5 9 -10 14 -10 6 0 7 5
4 11 -4 6 3 13 15 16 16 4 18 8 8 14 -8 6 -9 9 -1 9 16 0 9 66 -12 115 -10 22
-19 42 -19 45 -3 17 -45 59 -51 50 -8 -13 -25 -4 -25 13 0 7 4 6 11 -3 9 -13
10 -13 6 0 -2 8 -11 14 -20 14 -9 -1 -16 1 -15 5 2 19 -4 24 -12 11 -8 -12
-10 -12 -10 5 0 17 -2 17 -10 5 -8 -13 -10 -12 -10 3 0 18 -4 19 -104 22 -47
2 -62 -1 -75 -17z m134 2 c3 -5 1 -10 -4 -10 -6 0 -11 5 -11 10 0 6 2 10 4 10
3 0 8 -4 11 -10z m45 -40 c0 -5 -4 -10 -10 -10 -5 0 -10 5 -10 10 0 6 5 10 10
10 6 0 10 -4 10 -10z m53 -25 c4 -8 3 -16 -1 -19 -4 -3 -9 4 -9 15 -2 23 3 25
10 4z m47 -15 c0 -5 -5 -10 -11 -10 -5 0 -7 5 -4 10 3 6 8 10 11 10 2 0 4 -4
4 -10z m26 -22 c5 -7 3 -8 -5 -4 -20 13 -9 -27 14 -47 14 -13 10 -12 -12 3
-28 18 -31 24 -23 41 12 22 16 23 26 7z m-441 -38 c5 1 11 -4 13 -12 3 -11 2
-11 -6 0 -5 8 -13 13 -18 12 -5 0 -10 7 -11 17 -3 17 -2 17 5 0 4 -10 12 -18
17 -17z m40 20 c-3 -5 -12 -10 -18 -10 -7 0 -6 4 3 10 19 12 23 12 15 0z m-70
-83 c3 -16 -1 -29 -13 -38 -14 -11 -15 -11 -4 1 18 21 15 34 -5 19 -17 -13
-17 -12 -2 6 9 11 14 27 11 35 -2 8 -2 12 2 9 4 -4 9 -18 11 -32z m485 13 c0
-5 -4 -10 -10 -10 -5 0 -10 5 -10 10 0 6 5 10 10 10 6 0 10 -4 10 -10z m16
-53 c-3 -24 -28 -31 -32 -9 -1 7 0 8 3 2 8 -17 19 -11 20 10 1 13 -2 18 -9 14
-7 -4 -8 -2 -4 5 11 17 26 3 22 -22z m-493 -24 c-7 -2 -19 -2 -25 0 -7 3 -2 5
12 5 14 0 19 -2 13 -5z m13 -92 c2 -26 -14 -37 -29 -22 -9 9 -8 11 3 6 11 -4
16 1 17 14 1 13 -3 18 -12 15 -7 -3 -15 -1 -19 4 -3 5 5 8 17 7 15 -1 22 -9
23 -24z m459 -2 c11 -16 1 -19 -13 -3 -7 8 -8 14 -3 14 5 0 13 -5 16 -11z
m-15 -19 c0 -5 0 -13 0 -17 0 -11 -39 -12 -45 -2 -3 4 7 6 21 3 24 -4 26 -3
14 11 -8 10 -9 15 -1 15 6 0 11 -4 11 -10z m-44 -42 c4 -7 3 -8 -4 -4 -7 4
-12 2 -12 -5 0 -7 -3 -10 -6 -6 -6 5 3 27 11 27 2 0 7 -5 11 -12z m-322 -38
c-6 -6 -15 -5 -24 1 -12 9 -12 10 4 5 14 -5 17 -3 12 11 -6 15 -5 16 5 6 8 -8
10 -16 3 -23z m321 0 c3 -5 1 -10 -4 -10 -6 0 -11 5 -11 10 0 6 2 10 4 10 3 0
8 -4 11 -10z m-293 -25 c-8 -16 -9 -16 -15 -1 -4 10 -3 15 3 11 6 -3 10 -1 10
6 0 7 3 10 6 6 3 -3 2 -13 -4 -22z m198 -5 c0 -5 -4 -10 -10 -10 -5 0 -10 5
-10 10 0 6 5 10 10 10 6 0 10 -4 10 -10z m40 -10 c0 -5 -8 -10 -17 -10 -15 0
-16 2 -3 10 19 12 20 12 20 0z m-60 -20 c0 -5 -2 -10 -4 -10 -3 0 -8 5 -11 10
-3 6 -1 10 4 10 6 0 11 -4 11 -10z"/>
<path d="M7267 8793 c-7 -6 5 -53 14 -59 5 -3 9 0 9 5 0 6 5 11 10 11 17 0 11
-14 -11 -28 -12 -8 -18 -9 -14 -3 3 6 2 11 -4 11 -5 0 -9 -9 -8 -20 1 -23 8
-25 25 -8 9 9 12 9 12 1 0 -7 -9 -15 -20 -18 -16 -5 -18 -10 -10 -26 7 -11 7
-19 1 -19 -10 0 -9 -19 2 -37 5 -7 5 -13 0 -13 -6 0 -9 -85 -4 -146 1 -7 10
-14 22 -17 12 -3 18 -10 14 -16 -9 -15 11 -14 22 2 12 15 11 97 -1 116 -7 10
-6 12 4 6 10 -6 12 0 8 23 -2 17 0 33 4 34 5 2 10 18 10 35 1 18 4 31 7 30 3
-1 19 11 35 26 16 15 35 27 42 27 8 0 14 5 14 10 0 6 11 10 23 10 14 0 24 6
24 15 0 8 -9 15 -19 15 -12 0 -16 -4 -12 -12 5 -7 3 -8 -5 -3 -18 10 2 28 25
23 11 -2 18 -10 16 -16 -3 -17 27 -27 41 -13 8 8 6 11 -8 11 -16 0 -17 2 -6 9
24 15 22 41 -2 38 -12 -1 -25 -6 -29 -12 -5 -6 -8 -5 -8 3 0 9 -5 10 -19 3
-10 -6 -22 -7 -26 -3 -5 4 -5 1 0 -7 5 -9 3 -12 -6 -9 -18 7 -69 -29 -69 -48
0 -8 -4 -12 -10 -9 -9 6 -15 -16 -11 -39 1 -5 -5 -4 -13 4 -19 15 -21 0 -3
-20 10 -12 9 -12 -4 -2 -9 7 -16 24 -16 37 0 23 1 24 13 8 16 -21 18 -10 4 18
-6 10 -7 19 -3 19 4 0 8 12 8 28 0 24 -4 27 -32 28 -18 1 -34 0 -36 -3z m21
-28 c-3 -3 -9 2 -12 12 -6 14 -5 15 5 6 7 -7 10 -15 7 -18z m30 0 c-3 -3 -9 2
-12 12 -6 14 -5 15 5 6 7 -7 10 -15 7 -18z m127 -24 c3 -6 -5 -15 -17 -21 -21
-10 -21 -10 -6 3 10 8 15 17 11 20 -3 4 -4 7 0 7 3 0 8 -4 12 -9z m-55 -41
c-8 -5 -19 -10 -25 -10 -5 0 -3 5 5 10 8 5 20 10 25 10 6 0 3 -5 -5 -10z m-90
-45 c-1 -6 9 -13 22 -17 l23 -7 -23 2 c-12 1 -22 6 -22 11 1 5 -4 13 -12 18
-11 8 -11 9 0 6 8 -2 13 -8 12 -13z m-10 -35 c0 -5 -5 -10 -11 -10 -5 0 -7 5
-4 10 3 6 8 10 11 10 2 0 4 -4 4 -10z m32 -18 c-13 -4 -23 -11 -22 -17 1 -5
-4 -11 -12 -13 -9 -2 -8 0 2 7 8 6 11 11 7 11 -5 0 -5 5 -2 10 3 6 16 10 28 9
22 -1 22 -1 -1 -7z m8 -41 c0 -5 -7 -11 -14 -14 -10 -4 -13 -1 -9 9 6 15 23
19 23 5z m-20 -43 c0 -6 -6 -5 -15 2 -8 7 -15 14 -15 16 0 2 7 1 15 -2 8 -4
15 -11 15 -16z m15 -28 c3 -6 -1 -7 -9 -4 -18 7 -21 14 -7 14 6 0 13 -4 16
-10z m-35 -10 c0 -5 -5 -10 -11 -10 -5 0 -7 5 -4 10 3 6 8 10 11 10 2 0 4 -4
4 -10z m20 -20 c-8 -5 -19 -10 -25 -10 -5 0 -3 5 5 10 8 5 20 10 25 10 6 0 3
-5 -5 -10z m15 -20 c3 -5 1 -10 -4 -10 -6 0 -11 5 -11 10 0 6 2 10 4 10 3 0 8
-4 11 -10z"/>
<path d="M8308 8776 c-2 -11 -12 -21 -25 -22 -25 -4 -39 11 -22 22 7 4 9 3 5
-4 -4 -7 1 -10 14 -9 11 1 20 7 20 14 0 17 -30 11 -92 -16 -50 -23 -70 -42
-50 -49 7 -2 12 -10 12 -18 0 -19 4 -18 55 10 24 14 46 22 49 19 3 -4 6 -1 6
5 0 7 5 12 11 12 5 0 7 -4 4 -10 -3 -5 -4 -10 -1 -10 3 0 13 12 21 28 9 15 14
19 11 10 -3 -10 -1 -20 4 -23 6 -4 10 -1 10 5 0 6 5 8 12 4 25 -16 73 -11 95
8 17 16 25 18 40 8 16 -10 16 -10 -5 -5 -16 5 -22 3 -20 -7 2 -7 -3 -12 -9
-10 -20 3 -15 -15 5 -20 10 -3 33 -26 50 -52 18 -26 29 -45 25 -43 -5 3 -8
-11 -8 -31 l0 -37 -48 0 c-45 0 -58 -7 -37 -20 6 -3 10 -11 10 -18 0 -6 -7 -2
-15 10 -8 11 -26 23 -40 25 -20 4 -25 1 -26 -16 0 -15 -2 -16 -6 -6 -11 28
-27 29 -40 2 l-12 -27 2 25 c1 18 -2 24 -13 21 -8 -2 -21 -4 -28 -4 -6 0 -11
-7 -10 -15 2 -8 -4 -17 -12 -19 -13 -4 -13 -3 0 6 8 6 13 11 10 12 -3 0 -13 2
-23 4 -12 2 -17 -1 -14 -9 4 -9 -2 -12 -16 -9 -17 3 -27 -6 -46 -39 -27 -47
-37 -93 -18 -81 7 4 6 -1 -2 -10 -9 -12 -10 -17 -2 -17 7 0 9 -5 6 -10 -12
-19 42 -87 69 -88 5 0 12 -5 15 -10 8 -13 71 -23 71 -12 0 5 -6 11 -12 13 -10
4 -10 6 0 6 8 1 17 -9 20 -21 5 -22 6 -22 19 7 14 30 14 30 8 3 -6 -33 5 -36
23 -8 7 11 17 20 24 20 7 0 3 -7 -8 -15 -18 -14 -18 -15 6 -11 14 3 31 5 38 5
6 1 12 9 12 19 0 14 2 14 9 3 8 -12 15 -11 45 10 37 25 48 43 19 32 -11 -5
-14 -3 -9 6 5 7 17 11 27 8 21 -6 26 8 7 16 -10 4 -10 6 -1 6 18 1 26 -18 14
-32 -15 -18 -11 -74 5 -74 8 0 14 5 14 11 0 7 3 7 8 1 10 -14 32 -17 32 -5 0
5 -8 14 -17 20 -13 9 -14 10 -2 7 13 -4 15 11 14 124 0 71 3 129 8 129 4 0 5
5 1 12 -4 7 -9 30 -11 53 -4 60 -8 84 -18 92 -4 5 -5 2 0 -6 6 -10 4 -12 -4
-6 -8 4 -9 11 -3 17 12 12 -31 60 -74 81 -23 12 -34 13 -43 4 -8 -8 -14 -8
-23 2 -11 10 -10 11 5 6 9 -4 17 -3 17 3 0 12 -43 10 -52 -3 -5 -6 -8 -6 -8 2
0 7 -15 11 -40 10 -30 -1 -40 -5 -42 -21z m57 4 c-3 -5 -12 -10 -18 -10 -7 0
-6 4 3 10 19 12 23 12 15 0z m25 -14 c0 -2 -7 -9 -15 -16 -13 -11 -14 -10 -9
4 5 14 24 23 24 12z m35 -5 c3 -5 0 -13 -6 -17 -7 -4 -9 -3 -5 4 3 5 0 13 -6
15 -9 4 -10 6 -1 6 6 1 14 -3 18 -8z m-175 -21 c0 -5 -8 -10 -17 -10 -15 0
-16 2 -3 10 19 12 20 12 20 0z m290 -5 c0 -2 -8 -3 -17 -3 -10 0 -27 -2 -38
-6 -13 -5 -12 -2 4 7 21 12 51 13 51 2z m-357 -16 c-8 -8 -13 -7 -18 2 -5 8
-4 10 3 5 7 -4 12 -2 12 5 0 7 3 9 7 6 4 -4 2 -12 -4 -18z m13 -17 c-17 -16
-18 -16 -5 5 7 12 15 20 18 17 3 -2 -3 -12 -13 -22z m317 -3 c-8 -8 -13 -7
-18 2 -5 8 -4 10 3 5 7 -4 12 -2 12 5 0 7 3 9 7 6 4 -4 2 -12 -4 -18z m39 -6
c-6 -9 -17 -18 -26 -19 -9 -1 -14 2 -10 7 3 5 9 7 14 4 4 -3 10 2 14 10 3 8 8
15 11 15 3 0 2 -8 -3 -17z m11 -48 c-7 -21 -12 -19 -10 4 0 11 5 18 9 15 4 -3
5 -11 1 -19z m17 -18 c0 -7 -9 -18 -21 -25 -21 -13 -21 -13 -3 12 22 29 24 31
24 13z m-10 -57 c0 -5 -4 -10 -10 -10 -5 0 -10 5 -10 10 0 6 5 10 10 10 6 0
10 -4 10 -10z m-265 -30 c-3 -5 -12 -10 -18 -10 -7 0 -6 4 3 10 19 12 23 12
15 0z m245 6 c0 -2 -7 -7 -16 -10 -8 -3 -12 -2 -9 4 6 10 25 14 25 6z m40 -6
c0 -5 -4 -10 -10 -10 -5 0 -10 5 -10 10 0 6 5 10 10 10 6 0 10 -4 10 -10z
m-180 -15 c0 6 6 3 13 -6 14 -19 71 -23 60 -5 -4 6 1 5 10 -3 14 -11 17 -11
18 0 0 8 4 3 10 -9 5 -13 7 -35 5 -48 -3 -13 0 -26 5 -29 5 -4 5 -11 -1 -18
-51 -63 -61 -78 -54 -88 5 -9 2 -10 -9 -6 -22 8 -49 -2 -41 -15 4 -6 -2 -7
-17 -3 -20 6 -22 5 -11 -6 6 -7 12 -18 12 -23 0 -6 -7 0 -16 12 -15 22 -17 22
-31 5 -8 -10 -11 -12 -7 -4 5 11 -1 13 -29 9 -20 -2 -33 0 -31 4 3 4 0 9 -5 9
-20 3 -26 5 -48 17 -13 7 -23 19 -23 27 0 7 -5 17 -12 21 -7 4 -8 3 -4 -4 4
-7 2 -12 -3 -12 -14 0 -14 13 1 28 9 9 9 12 0 12 -7 0 -12 5 -12 11 0 5 4 8 9
4 6 -3 8 4 6 15 -2 11 -1 20 3 20 4 0 13 9 20 21 8 12 9 18 3 15 -5 -4 -13 -1
-17 5 -4 8 -3 9 4 5 7 -4 12 -3 12 2 0 5 15 7 33 5 24 -3 29 -2 17 6 -13 9
-13 11 2 11 9 0 20 -5 24 -11 5 -8 13 -4 26 12 l19 24 -6 -23 c-6 -21 -5 -23
12 -13 11 5 29 7 41 4 13 -3 22 -1 22 6 0 6 -5 10 -11 9 -6 -2 -14 4 -16 12
-4 13 -3 13 6 0 6 -8 11 -10 11 -5z m156 -13 c1 -7 0 -8 -3 -2 -2 5 -9 10 -14
10 -6 0 -8 -4 -4 -9 3 -5 1 -12 -4 -15 -8 -5 -8 5 -2 32 2 9 25 -6 27 -16z
m-362 -17 c-4 -8 -8 -15 -10 -15 -2 0 -4 7 -4 15 0 8 4 15 10 15 5 0 7 -7 4
-15z m6 -37 c0 -11 -12 -10 -30 2 -12 7 -10 9 8 7 12 0 22 -5 22 -9z m370 -3
c0 -8 -2 -15 -4 -15 -2 0 -6 7 -10 15 -3 8 -1 15 4 15 6 0 10 -7 10 -15z m-39
-18 c-10 -9 -11 -8 -5 6 3 10 9 15 12 12 3 -3 0 -11 -7 -18z m-357 4 c3 -4 0
-16 -7 -25 -12 -17 -14 -17 -28 1 -13 16 -12 17 2 5 14 -10 18 -10 22 2 4 9
-1 17 -11 19 -16 4 -16 5 0 6 9 0 19 -3 22 -8z m386 -18 c0 -5 -5 -15 -10 -23
-7 -12 -9 -10 -7 8 1 19 17 33 17 15z m15 -42 c0 -16 -3 -27 -7 -24 -13 7 -7
53 6 53 1 0 1 -13 1 -29z m-405 -1 c0 -5 -4 -10 -10 -10 -5 0 -10 5 -10 10 0
6 5 10 10 10 6 0 10 -4 10 -10z m360 1 c0 -5 -7 -11 -14 -14 -10 -4 -13 -1 -9
9 6 15 23 19 23 5z m41 -56 c7 -13 3 -12 -10 5 -11 14 -21 30 -21 35 0 11 14
-7 31 -40z m-404 19 c-3 -3 -12 -4 -19 -1 -8 3 -5 6 6 6 11 1 17 -2 13 -5z
m333 2 c0 -2 -7 -7 -16 -10 -8 -3 -12 -2 -9 4 6 10 25 14 25 6z m-320 -20 c0
-3 -4 -8 -10 -11 -5 -3 -10 -1 -10 4 0 6 5 11 10 11 6 0 10 -2 10 -4z m40 -21
c0 -7 -30 -13 -34 -7 -3 4 4 9 15 9 10 1 19 0 19 -2z m230 -30 c0 -5 -5 -3
-10 5 -5 8 -10 20 -10 25 0 6 5 3 10 -5 5 -8 10 -19 10 -25z m115 25 c3 -5 2
-10 -4 -10 -5 0 -13 5 -16 10 -3 6 -2 10 4 10 5 0 13 -4 16 -10z m-325 -9 c0
-5 -10 -11 -22 -14 -22 -6 -22 -6 -4 8 23 17 26 18 26 6z"/>
<path d="M9279 8790 c-5 -29 -3 -62 3 -66 4 -3 5 -11 2 -18 -3 -8 -1 -17 5
-21 6 -3 11 -15 11 -26 0 -10 6 -18 13 -16 7 1 12 -8 12 -23 0 -14 -5 -24 -11
-23 -7 1 -15 -9 -18 -23 -4 -16 -11 -22 -19 -17 -9 5 -9 4 0 -8 10 -12 10 -18
1 -27 -7 -7 -8 -12 -2 -12 5 0 10 -9 11 -20 1 -13 -2 -18 -10 -13 -9 5 -9 3 0
-8 10 -12 10 -18 1 -27 -7 -7 -8 -12 -2 -12 5 0 10 -9 11 -20 1 -11 -2 -18 -6
-16 -11 7 -8 -38 3 -45 5 -4 5 -13 0 -20 -11 -18 -12 -59 -1 -59 5 0 7 -6 4
-14 -4 -10 4 -13 29 -12 28 1 34 5 34 24 0 12 -4 22 -10 22 -5 0 -10 5 -10 11
0 5 5 7 10 4 6 -4 10 8 10 29 0 20 -4 36 -10 36 -5 0 -10 5 -10 11 0 5 5 7 11
4 13 -9 8 27 -6 37 -6 5 -5 8 3 8 6 0 12 12 12 26 0 17 -4 23 -12 18 -8 -5 -8
-1 1 10 13 16 12 17 -15 12 l-29 -6 28 11 c27 11 39 49 15 49 -8 1 -6 6 4 14
10 7 15 16 11 20 -3 3 -16 -2 -27 -11 -17 -14 -16 -12 2 9 17 18 22 33 17 47
-4 14 -2 21 6 21 7 0 5 8 -7 22 -10 12 -14 18 -7 14 9 -5 11 9 10 51 l-2 58
-32 0 c-18 0 -33 -2 -34 -5z m41 -29 c-17 -5 -21 -9 -12 -15 6 -4 18 -4 25 0
9 5 9 4 0 -6 -10 -11 -15 -11 -27 0 -20 16 -11 30 17 29 20 -1 20 -2 -3 -8z
m-10 -52 c6 -10 7 -19 3 -19 -4 0 -13 11 -20 25 -13 29 2 24 17 -6z m21 -46
c13 -16 12 -17 -3 -4 -10 7 -18 15 -18 17 0 8 8 3 21 -13z m-6 -124 c11 -16 1
-19 -13 -3 -7 8 -8 14 -3 14 5 0 13 -5 16 -11z m-15 -19 c0 -5 -2 -10 -4 -10
-3 0 -8 5 -11 10 -3 6 -1 10 4 10 6 0 11 -4 11 -10z m15 -61 c11 -16 1 -19
-13 -3 -7 8 -8 14 -3 14 5 0 13 -5 16 -11z m-15 -19 c0 -5 -2 -10 -4 -10 -3 0
-8 5 -11 10 -3 6 -1 10 4 10 6 0 11 -4 11 -10z m15 -30 c3 -6 -1 -7 -9 -4 -18
7 -21 14 -7 14 6 0 13 -4 16 -10z m-17 -34 c-7 -8 -15 -12 -17 -11 -5 6 10 25
20 25 5 0 4 -6 -3 -14z m17 -28 c-9 -6 -19 -7 -22 -4 -4 3 -1 6 6 6 7 0 9 4 6
10 -4 6 1 7 11 3 15 -6 15 -7 -1 -15z m5 -28 c-8 -5 -18 -6 -22 -4 -4 3 -8 -5
-9 -18 0 -13 -3 -17 -6 -10 -8 21 3 37 28 39 18 2 20 0 9 -7z m-5 -52 c-9 -6
-19 -7 -22 -4 -4 3 -1 6 6 6 7 0 9 4 6 10 -4 6 1 7 11 3 15 -6 15 -7 -1 -15z"/>
<path d="M9759 8796 c-2 -2 -19 -7 -38 -9 -19 -3 -38 -12 -42 -19 -5 -7 -9
-10 -9 -6 0 4 -9 0 -19 -9 -11 -9 -18 -20 -15 -25 8 -13 24 -9 22 5 -2 6 3 12
11 12 8 0 15 -6 17 -13 1 -7 0 -8 -3 -2 -2 5 -9 10 -14 10 -6 0 -8 -4 -4 -9 9
-16 -15 -23 -32 -10 -13 11 -17 10 -29 -6 -8 -10 -11 -21 -8 -24 3 -3 9 1 14
9 5 8 12 11 17 7 11 -12 -19 -27 -39 -21 -18 5 -23 -8 -20 -49 1 -10 -3 -26
-8 -35 -9 -14 -10 -13 -5 6 4 12 2 22 -3 22 -14 0 -21 -60 -8 -60 6 0 3 -6 -6
-14 -16 -12 -16 -14 0 -31 9 -10 11 -15 5 -11 -9 5 -13 0 -13 -13 0 -12 5 -21
10 -21 6 0 10 -5 10 -11 0 -5 -4 -7 -10 -4 -5 3 -10 1 -10 -4 0 -6 4 -11 9
-11 5 0 9 -11 9 -25 0 -32 8 -41 24 -28 15 12 49 13 42 2 -2 -5 -11 -6 -19 -3
-10 4 -13 0 -10 -15 2 -12 0 -19 -6 -16 -5 4 -6 11 -3 17 4 7 2 8 -4 4 -25
-15 81 -122 120 -120 10 1 18 -3 18 -8 0 -5 5 -6 10 -3 6 3 10 0 10 -7 0 -7 9
0 20 17 16 25 19 26 17 8 0 -12 -5 -19 -9 -17 -4 3 -8 0 -8 -5 0 -11 12 -13
60 -13 57 1 80 7 81 22 0 8 3 10 5 4 5 -13 44 -7 44 7 0 5 -8 6 -17 3 -15 -5
-15 -4 -3 4 10 8 18 7 28 -1 11 -9 13 -7 10 8 -1 10 3 19 10 21 7 1 8 0 2 -3
-5 -2 -8 -9 -5 -14 3 -5 21 5 40 23 19 17 32 35 28 41 -4 6 -10 3 -15 -9 -8
-18 -8 -18 -5 1 2 12 9 19 19 17 25 -4 31 16 9 27 -14 8 -20 7 -25 -4 -3 -8
-10 -15 -16 -15 -5 0 -2 9 7 19 12 15 21 17 34 10 25 -13 29 -12 29 9 0 10 6
24 13 31 10 11 10 13 0 7 -7 -4 -13 -2 -13 3 0 6 5 11 12 11 6 0 8 3 4 8 -4 4
-13 7 -19 7 -20 0 -16 45 5 56 24 13 19 63 -9 86 -10 8 -12 12 -5 8 15 -8 15
-3 0 30 -6 14 -15 25 -20 25 -5 0 -6 -6 -3 -12 4 -7 -2 -3 -13 9 -11 12 -22
20 -26 18 -3 -3 -4 -2 -1 1 2 4 0 16 -6 28 -8 17 -6 16 10 -4 11 -14 21 -29
21 -33 0 -5 5 -5 10 -2 6 4 -1 18 -17 35 -15 16 -30 27 -35 24 -4 -3 -8 -1 -8
4 0 14 -73 41 -124 46 -38 4 -45 2 -55 -20 -9 -21 -13 -23 -30 -12 -11 7 -18
14 -16 17 3 2 12 -2 22 -10 15 -12 16 -12 10 4 -4 11 -3 16 3 12 6 -3 10 -1
10 4 0 11 -22 15 -31 7z m85 -18 c-3 -4 -9 -8 -15 -8 -5 0 -9 4 -9 8 0 5 7 9
15 9 8 0 12 -4 9 -9z m-135 -5 c-3 -20 2 -27 11 -13 7 12 9 10 7 -7 -1 -18 -4
-20 -17 -10 -8 6 -17 12 -19 14 -4 2 9 23 15 23 2 0 3 -3 3 -7z m98 -17 c-9
-23 3 -26 24 -5 20 20 40 18 38 -4 0 -9 -2 -9 -5 0 -5 12 -34 7 -34 -6 0 -15
46 -9 60 8 11 14 20 17 35 10 18 -9 18 -9 -3 -5 -18 3 -22 1 -18 -10 3 -9 1
-12 -4 -9 -6 3 -10 2 -10 -3 0 -10 24 -22 43 -22 7 0 6 4 -3 10 -9 6 -10 10
-3 10 16 0 26 -17 14 -24 -5 -3 5 -21 22 -39 18 -18 37 -41 44 -52 12 -19 12
-19 10 4 -1 16 4 25 16 26 9 2 15 -1 11 -6 -3 -5 -10 -6 -16 -3 -8 5 -9 1 -5
-10 4 -9 2 -25 -5 -35 -6 -10 -8 -26 -5 -35 4 -9 5 -18 4 -20 -1 -1 4 -10 12
-20 12 -15 12 -16 -5 -9 -17 6 -17 5 -5 -10 7 -10 9 -17 3 -17 -6 0 -9 -8 -7
-17 1 -10 -2 -24 -8 -30 -5 -7 -6 -13 -2 -13 4 0 -13 -21 -39 -46 -44 -44 -57
-62 -37 -49 5 3 13 0 17 -6 4 -8 3 -9 -4 -5 -7 4 -12 2 -12 -5 0 -8 -4 -8 -13
-1 -7 6 -18 7 -26 2 -8 -4 -20 -6 -28 -3 -7 3 -13 1 -13 -3 0 -5 -16 -9 -35
-10 -19 0 -35 2 -35 5 0 4 -9 7 -19 8 -13 1 -18 -3 -15 -12 3 -7 0 -16 -6 -20
-6 -4 -11 -1 -9 6 4 30 -3 43 -11 19 l-8 -25 -1 28 c-1 15 -7 27 -15 27 -7 0
-23 14 -36 30 -16 21 -27 27 -34 20 -5 -5 -14 -10 -20 -10 -5 0 -2 6 8 13 16
12 13 53 -3 43 -4 -3 -6 9 -5 25 2 23 -1 29 -12 25 -8 -3 -17 1 -20 9 -4 8
-10 12 -15 9 -5 -3 -6 3 -2 12 4 11 8 13 11 6 2 -7 8 -10 13 -7 5 4 6 -2 2
-12 -6 -16 -5 -17 11 -3 17 13 17 15 -4 32 -12 10 -26 15 -31 12 -5 -3 -9 0
-9 5 0 14 6 14 30 1 13 -7 21 -7 25 0 3 5 0 10 -8 10 -37 0 -40 51 -3 56 9 1
14 -2 10 -7 -3 -5 -9 -7 -14 -4 -5 3 -8 -4 -7 -15 2 -35 24 -21 31 22 1 7 8
23 14 36 7 12 10 27 6 33 -3 6 0 10 7 8 25 -3 39 1 39 11 0 5 -8 7 -17 3 -10
-3 -15 -3 -11 1 3 4 14 9 23 10 9 1 21 9 26 17 5 8 9 9 9 2 0 -8 6 -8 24 0 16
8 21 14 13 19 -18 11 1 10 23 -2 15 -8 20 -6 25 10 3 11 9 20 12 20 3 0 3 -6
0 -14z m157 -22 c3 -8 2 -12 -4 -9 -6 3 -10 10 -10 16 0 14 7 11 14 -7z m16
-28 c0 -2 -7 -7 -16 -10 -8 -3 -12 -2 -9 4 6 10 25 14 25 6z m10 -37 c0 -6 -4
-7 -10 -4 -5 3 -10 11 -10 16 0 6 5 7 10 4 6 -3 10 -11 10 -16z m-400 -9 c0
-5 -5 -10 -11 -10 -5 0 -7 5 -4 10 3 6 8 10 11 10 2 0 4 -4 4 -10z m12 -32
c-7 -7 -12 -8 -12 -2 0 14 12 26 19 19 2 -3 -1 -11 -7 -17z m434 -46 c-17 -16
-18 -16 -5 5 7 12 15 20 18 17 3 -2 -3 -12 -13 -22z m36 -1 c-8 -4 -12 -12
-10 -17 1 -5 -8 -10 -22 -11 l-25 -2 25 8 c14 5 21 9 17 10 -13 2 3 21 16 21
8 0 8 -3 -1 -9z m-505 -133 c-3 -8 -6 -5 -6 6 -1 11 2 17 5 13 3 -3 4 -12 1
-19z m488 12 c3 -6 -1 -7 -9 -4 -18 7 -21 14 -7 14 6 0 13 -4 16 -10z m-10
-32 c-9 -6 -19 -7 -22 -4 -4 3 -1 6 6 6 7 0 9 4 6 10 -4 6 1 7 11 3 15 -6 15
-7 -1 -15z m-455 -2 c0 -2 -7 -7 -16 -10 -8 -3 -12 -2 -9 4 6 10 25 14 25 6z
m60 -71 c11 -13 10 -14 -4 -9 -9 3 -16 10 -16 15 0 13 6 11 20 -6z m330 -20
c-9 -11 -16 -13 -23 -6 -7 7 -6 15 3 26 9 11 16 13 23 6 7 -7 6 -15 -3 -26z
m-363 9 c-3 -3 -12 -4 -19 -1 -8 3 -5 6 6 6 11 1 17 -2 13 -5z m58 -24 c3 -5
2 -10 -4 -10 -5 0 -13 5 -16 10 -3 6 -2 10 4 10 5 0 13 -4 16 -10z m-10 -28
c-3 -3 -11 0 -18 7 -9 10 -8 11 6 5 10 -3 15 -9 12 -12z m16 -15 c-10 -9 -11
-8 -5 6 3 10 9 15 12 12 3 -3 0 -11 -7 -18z m224 13 c-3 -5 -15 -10 -26 -10
-10 0 -18 -5 -16 -11 1 -6 -5 -14 -13 -16 -12 -4 -12 -3 -2 5 8 5 13 13 12 18
-1 5 9 12 22 16 13 3 24 6 26 7 2 1 0 -3 -3 -9z m-70 -18 c-3 -3 -11 0 -18 7
-9 10 -8 11 6 5 10 -3 15 -9 12 -12z m-15 -12 c18 -12 2 -12 -25 0 -13 6 -15
9 -5 9 8 0 22 -4 30 -9z"/>
<path d="M9967 8353 c-4 -3 -7 -11 -7 -17 0 -6 5 -5 12 2 6 6 9 14 7 17 -3 3
-9 2 -12 -2z"/>
<path d="M10280 8786 c0 -8 -5 -16 -12 -18 -7 -3 -6 -7 5 -11 9 -3 17 -2 17 3
0 6 5 10 11 10 8 0 8 -5 -1 -15 -7 -8 -16 -12 -21 -10 -4 3 -8 -12 -7 -32 0
-21 -2 -43 -4 -48 -1 -6 7 -21 19 -34 24 -25 22 -41 -4 -41 -12 0 -14 -7 -10
-29 4 -18 2 -31 -5 -33 -7 -3 -5 -7 5 -11 9 -3 17 -2 17 3 0 6 5 10 11 10 8 0
8 -5 -1 -15 -7 -8 -16 -12 -21 -9 -5 3 -8 -17 -6 -45 1 -28 -2 -53 -8 -55 -5
-2 -2 -5 8 -5 9 -1 17 -6 17 -12 0 -5 -5 -7 -12 -3 -7 4 -8 3 -4 -4 4 -7 2
-12 -5 -12 -7 0 -4 -7 7 -16 10 -8 14 -13 7 -10 -7 4 -11 -11 -11 -49 1 -55 1
-55 31 -52 24 2 32 8 38 30 5 20 3 29 -9 37 -15 8 -15 10 3 10 11 1 14 4 8 7
-9 3 -10 10 -3 24 7 11 7 19 1 19 -5 0 -11 -5 -13 -12 -2 -6 -12 -9 -21 -5
-15 5 -15 10 -5 26 7 11 14 18 17 16 2 -3 -2 -11 -9 -20 -15 -19 -1 -19 23 -1
10 8 13 16 8 17 -8 3 -8 15 -2 36 8 27 6 35 -7 43 -15 8 -15 10 3 10 11 1 14
4 8 7 -9 3 -10 10 -3 24 8 15 7 19 -5 19 -8 0 -15 5 -15 11 0 5 4 8 9 5 5 -3
11 1 15 9 4 10 -1 15 -14 15 -11 0 -20 4 -20 9 0 5 10 7 23 4 16 -3 18 -2 8 5
-11 8 -11 11 0 18 19 12 50 74 44 85 -4 5 0 6 8 4 7 -3 24 3 36 14 13 12 28
18 32 15 5 -3 9 -1 9 4 0 5 28 7 63 5 90 -5 90 -5 111 -25 11 -10 24 -18 28
-18 5 0 6 -5 2 -12 -4 -6 -3 -8 3 -5 9 6 15 -8 28 -68 1 -5 3 -16 3 -24 2 -11
5 -11 17 -1 9 7 18 11 20 8 3 -3 -6 -11 -20 -18 -23 -12 -23 -14 -7 -27 9 -8
11 -12 5 -8 -10 5 -13 -27 -13 -144 0 -155 4 -171 39 -138 11 10 13 10 7 0 -4
-8 -2 -13 6 -13 15 0 18 37 5 57 -4 6 -2 15 4 19 8 5 9 3 4 -6 -5 -9 -4 -11 4
-6 6 4 9 12 5 17 -8 14 -11 140 -3 145 9 5 0 44 -15 63 -8 11 -8 13 2 7 7 -4
12 -2 12 6 0 8 -9 14 -20 15 -13 1 -18 -2 -14 -9 4 -7 2 -8 -5 -4 -16 10 -3
27 17 24 17 -3 18 2 11 75 -2 15 -11 37 -21 47 -10 11 -18 22 -18 25 0 3 -3 4
-6 3 -4 -2 -10 7 -15 19 -6 16 -13 21 -25 16 -13 -5 -15 -3 -9 7 6 10 4 12 -8
7 -10 -4 -16 -2 -14 5 1 7 -7 13 -18 15 -16 3 -17 2 -5 -6 9 -7 10 -11 3 -11
-7 0 -16 7 -21 16 -6 11 -12 13 -16 6 -3 -6 -2 -13 4 -17 5 -3 10 -11 10 -18
0 -6 -6 -2 -14 8 -8 11 -12 24 -9 28 3 5 -19 6 -48 3 -30 -4 -60 -7 -66 -8 -7
-1 -13 -6 -13 -11 0 -5 -7 -7 -15 -3 -9 3 -24 -3 -35 -14 -11 -11 -22 -19 -24
-17 -2 1 -8 -1 -12 -5 -4 -5 -2 -8 4 -8 7 0 12 -4 12 -9 0 -5 -10 -7 -22 -4
-17 3 -19 2 -10 -5 11 -7 11 -10 -3 -15 -12 -5 -14 -11 -5 -26 5 -11 10 -23
10 -28 -1 -4 -7 3 -15 17 -7 14 -17 24 -21 22 -5 -2 -10 1 -12 7 -2 6 3 14 12
17 20 8 21 24 1 24 -8 0 -15 4 -15 10 0 5 8 6 18 3 15 -6 16 -5 2 12 -11 13
-11 17 -2 11 10 -6 13 -3 10 9 -1 10 -9 20 -17 23 -9 3 -11 0 -6 -8 6 -9 3 -9
-14 -1 -17 9 -21 9 -21 -3z m274 -11 c-18 -15 -18 -16 5 -13 13 2 25 -3 27
-10 1 -7 0 -8 -3 -2 -2 5 -9 7 -14 4 -6 -3 -16 -3 -24 0 -19 7 -8 36 13 36 13
0 12 -3 -4 -15z m-64 -15 c0 -5 -4 -10 -10 -10 -5 0 -10 5 -10 10 0 6 5 10 10
10 6 0 10 -4 10 -10z m-60 -20 c0 -5 -4 -10 -10 -10 -5 0 -10 5 -10 10 0 6 5
10 10 10 6 0 10 -4 10 -10z m223 3 c-7 -2 -19 -2 -25 0 -7 3 -2 5 12 5 14 0
19 -2 13 -5z m-349 -21 c2 -4 -2 -16 -10 -27 -8 -10 -14 -14 -14 -8 0 7 5 15
11 19 8 4 7 9 -2 15 -10 6 -10 9 -2 9 6 0 14 -3 17 -8z m366 4 c0 -3 -4 -8
-10 -11 -5 -3 -10 -1 -10 4 0 6 5 11 10 11 6 0 10 -2 10 -4z m40 -26 c0 -5 -4
-10 -10 -10 -5 0 -10 5 -10 10 0 6 5 10 10 10 6 0 10 -4 10 -10z m18 -24 c-7
-8 -15 -12 -17 -11 -5 6 10 25 20 25 5 0 4 -6 -3 -14z m-418 -16 c0 -5 -4 -10
-10 -10 -5 0 -10 5 -10 10 0 6 5 10 10 10 6 0 10 -4 10 -10z m438 -7 c-3 -17
-34 -27 -43 -13 -3 5 4 7 16 5 15 -3 19 0 15 10 -3 8 -1 15 5 15 6 0 9 -7 7
-17z m-423 -13 c-5 -16 -3 -19 12 -14 15 5 15 4 3 -5 -19 -13 -33 0 -24 22 9
24 17 21 9 -3z m432 -32 c-3 -8 -6 -5 -6 6 -1 11 2 17 5 13 3 -3 4 -12 1 -19z
m-27 2 c0 -5 -5 -10 -11 -10 -5 0 -7 5 -4 10 3 6 8 10 11 10 2 0 4 -4 4 -10z
m-425 -49 c3 -5 0 -13 -6 -17 -7 -4 -9 -3 -5 4 3 5 0 13 -6 15 -9 4 -10 6 -1
6 6 1 14 -3 18 -8z m453 -78 c-16 -15 -18 -15 -24 0 -3 9 -3 25 0 34 6 15 8
15 24 0 15 -16 15 -18 0 -34z m-435 22 c-3 -9 -8 -14 -10 -11 -3 3 -2 9 2 15
9 16 15 13 8 -4z m-19 -23 c2 -4 -2 -16 -10 -27 -8 -10 -14 -14 -14 -8 0 7 5
15 11 19 8 4 7 9 -2 15 -10 6 -10 9 -2 9 6 0 14 -3 17 -8z m454 -35 c17 6 15
-4 -3 -11 -9 -3 -19 3 -25 17 -10 19 -9 20 2 6 7 -9 19 -14 26 -12z m-428 -22
c0 -5 -5 -3 -10 5 -5 8 -10 20 -10 25 0 6 5 3 10 -5 5 -8 10 -19 10 -25z m-20
-5 c0 -5 -4 -10 -10 -10 -5 0 -10 5 -10 10 0 6 5 10 10 10 6 0 10 -4 10 -10z
m455 -10 c3 -6 -1 -7 -9 -4 -18 7 -21 14 -7 14 6 0 13 -4 16 -10z m0 -30 c3
-6 -1 -7 -9 -4 -18 7 -21 14 -7 14 6 0 13 -4 16 -10z m-7 -57 c-16 -15 -18
-15 -24 0 -3 9 -3 25 0 34 6 15 8 15 24 0 15 -16 15 -18 0 -34z m-454 -1 c2
-4 -2 -16 -10 -27 -8 -10 -14 -14 -14 -8 0 7 5 15 11 19 8 4 7 9 -2 15 -10 6
-10 9 -2 9 6 0 14 -3 17 -8z m448 -36 c4 3 9 1 12 -4 3 -6 -1 -9 -10 -8 -9 1
-21 11 -26 22 -9 18 -8 18 5 2 8 -10 16 -15 19 -12z m-422 -21 c0 -5 -5 -3
-10 5 -5 8 -10 20 -10 25 0 6 5 3 10 -5 5 -8 10 -19 10 -25z m-20 1 c0 -3 -4
-8 -10 -11 -5 -3 -10 -1 -10 4 0 6 5 11 10 11 6 0 10 -2 10 -4z"/>
<path d="M10740 8500 c0 -19 3 -21 12 -12 9 9 9 15 0 24 -9 9 -12 7 -12 -12z"/>
<path d="M10740 8340 c0 -19 3 -21 12 -12 9 9 9 15 0 24 -9 9 -12 7 -12 -12z"/>
<path d="M6789 8743 c-13 -15 -12 -15 9 -4 23 12 28 21 13 21 -5 0 -15 -7 -22
-17z"/>
<path d="M10330 8700 c-8 -5 -12 -12 -9 -15 4 -3 12 1 19 10 14 17 11 19 -10
5z"/>
<path d="M6352 8665 c6 -14 15 -25 19 -25 5 0 3 11 -3 25 -6 14 -15 25 -19 25
-5 0 -3 -11 3 -25z"/>
<path d="M9274 8658 c1 -13 5 -26 10 -30 6 -4 5 -12 -2 -20 -6 -8 -7 -19 -3
-27 6 -9 10 -7 14 9 3 12 10 19 16 15 7 -3 11 2 11 14 0 12 -6 20 -12 19 -7
-2 -14 7 -16 20 -2 12 -7 22 -11 22 -4 0 -7 -10 -7 -22z"/>
<path d="M10270 8615 c0 -8 7 -15 16 -15 14 0 14 3 4 15 -7 8 -14 15 -16 15
-2 0 -4 -7 -4 -15z"/>
<path d="M4303 8608 c1 -7 -7 -13 -18 -13 -16 0 -20 -7 -21 -37 -1 -29 2 -36
17 -35 10 1 17 8 16 19 -1 10 -6 17 -12 14 -7 -2 -12 2 -12 9 0 10 5 11 17 5
10 -5 17 -19 16 -32 -1 -17 -7 -23 -26 -23 -14 0 -24 5 -23 12 2 7 -6 17 -17
23 -14 7 -20 7 -20 0 0 -5 5 -10 12 -10 6 0 8 -3 4 -7 -4 -5 -14 1 -22 11 -8
11 -14 14 -14 7 0 -7 -5 -9 -14 -4 -20 11 -168 4 -161 -8 4 -5 1 -9 -4 -9 -6
0 -11 4 -11 9 0 11 -54 -5 -87 -26 -12 -8 -20 -20 -17 -28 3 -7 0 -16 -7 -21
-8 -4 -10 -3 -5 4 4 7 2 12 -5 12 -6 0 -9 -8 -6 -20 3 -11 2 -20 -2 -20 -4 0
-8 -16 -9 -35 -2 -19 2 -35 8 -35 5 0 10 -5 10 -11 0 -5 -4 -7 -10 -4 -6 3 -7
-1 -4 -9 3 -9 13 -16 21 -16 11 0 13 -4 5 -12 -7 -9 -5 -17 6 -28 14 -13 15
-12 9 3 -4 11 -3 16 3 12 6 -3 10 -12 10 -19 0 -20 45 -37 59 -23 10 9 12 9 9
-3 -2 -10 6 -15 25 -16 15 -1 30 -4 33 -7 4 -4 16 -1 27 4 15 8 22 8 28 -2 7
-11 9 -11 9 -1 0 7 4 10 10 7 5 -3 20 0 32 7 13 7 25 12 28 13 12 0 62 45 51
45 -6 0 -11 5 -11 10 0 7 6 7 20 0 14 -8 20 -8 20 0 0 6 7 10 16 8 8 -2 14 -7
14 -12 -2 -9 19 -26 34 -26 5 0 3 7 -4 15 -10 12 -10 15 1 16 8 0 5 4 -6 9
-19 8 -19 9 -1 9 17 1 17 2 2 26 -15 23 -15 26 -1 32 13 5 14 7 3 14 -10 7
-10 9 2 9 13 0 13 1 0 10 -13 9 -13 10 0 10 9 1 5 5 -8 10 -20 9 -21 12 -11
32 7 13 12 24 11 26 -6 9 0 22 8 17 12 -7 2 23 -14 44 -7 10 -6 17 7 26 16 11
16 13 1 19 -22 8 -24 8 -21 -6z m-313 -88 c0 -5 -2 -10 -4 -10 -3 0 -8 5 -11
10 -3 6 -1 10 4 10 6 0 11 -4 11 -10z m72 -13 c-2 -11 3 -14 18 -10 11 3 18 9
15 13 -10 17 17 22 33 7 11 -10 38 -15 77 -16 86 -1 102 -2 87 -8 -6 -3 -9
-10 -5 -16 4 -7 -1 -6 -10 2 -19 15 -24 2 -6 -16 8 -8 7 -13 -2 -18 -8 -6 -10
-4 -4 5 5 9 4 11 -4 6 -6 -4 -8 -13 -4 -19 12 -20 10 -46 -5 -52 -11 -4 -12
-8 -2 -20 6 -8 10 -20 7 -27 -4 -8 -6 -7 -6 5 -1 23 -12 21 -40 -8 -21 -22
-40 -30 -64 -26 -5 1 -5 -4 -1 -10 5 -9 2 -10 -10 -6 -10 4 -15 3 -11 -3 3 -6
1 -10 -4 -10 -6 0 -11 6 -11 13 -1 6 -7 1 -16 -13 l-15 -25 5 25 c3 14 3 19 0
13 -4 -9 -11 -10 -23 -3 -10 5 -21 6 -25 2 -4 -3 -11 0 -16 8 -6 9 -10 10 -10
3 0 -7 -15 1 -32 18 -22 19 -33 39 -33 57 -1 22 -5 27 -25 27 -13 0 -25 6 -27
13 -3 6 0 12 7 12 6 0 8 -4 5 -10 -7 -12 2 -12 30 0 13 6 15 9 5 9 -10 1 -4
11 16 29 17 15 37 36 43 47 9 15 11 15 7 3 -7 -25 11 -22 24 3 13 23 36 20 32
-4z m148 13 c0 -5 -4 -10 -10 -10 -5 0 -10 5 -10 10 0 6 5 10 10 10 6 0 10 -4
10 -10z m-247 -25 c-7 -21 -12 -19 -10 4 0 11 5 18 9 15 4 -3 5 -11 1 -19z
m-30 -40 c-10 -8 -20 -11 -23 -8 -3 3 1 8 8 10 6 3 10 9 7 14 -4 5 1 6 10 3
14 -6 14 -8 -2 -19z m374 -41 c-4 -15 -5 -14 -6 4 -1 15 -5 21 -13 16 -7 -5
-8 -3 -3 5 10 18 28 -2 22 -25z m-392 -34 c3 -5 1 -10 -4 -10 -6 0 -11 5 -11
10 0 6 2 10 4 10 3 0 8 -4 11 -10z m375 0 c-8 -5 -19 -10 -25 -10 -5 0 -3 5 5
10 8 5 20 10 25 10 6 0 3 -5 -5 -10z m25 -20 c3 -5 2 -10 -4 -10 -5 0 -13 5
-16 10 -3 6 -2 10 4 10 5 0 13 -4 16 -10z m-385 -20 c0 -5 -7 -7 -15 -4 -8 4
-15 8 -15 10 0 2 7 4 15 4 8 0 15 -4 15 -10z m45 -30 c10 -11 15 -23 11 -27
-10 -11 -37 -12 -30 -2 3 5 10 7 15 4 13 -9 11 9 -3 23 -17 17 -28 15 -22 -5
5 -15 4 -15 -4 -3 -11 14 -7 30 7 30 4 0 16 -9 26 -20z m233 -20 c-7 -10 -14
-18 -15 -16 -6 6 9 36 18 36 5 0 4 -9 -3 -20z m-191 -32 c-3 -8 -6 -5 -6 6 -1
11 2 17 5 13 3 -3 4 -12 1 -19z m153 18 c0 -2 -6 -9 -14 -15 -11 -9 -16 -9
-22 0 -4 8 -3 9 4 5 7 -4 12 -2 12 3 0 6 5 11 10 11 6 0 10 -2 10 -4z m-100
-16 c0 -5 -4 -10 -10 -10 -5 0 -10 5 -10 10 0 6 5 10 10 10 6 0 10 -4 10 -10z"/>
<path d="M4040 8509 c0 -5 5 -7 10 -4 6 3 10 8 10 11 0 2 -4 4 -10 4 -5 0 -10
-5 -10 -11z"/>
<path d="M4105 8510 c3 -5 11 -10 16 -10 6 0 7 5 4 10 -3 6 -11 10 -16 10 -6
0 -7 -4 -4 -10z"/>
<path d="M4320 8580 c0 -5 5 -10 11 -10 5 0 7 5 4 10 -3 6 -8 10 -11 10 -2 0
-4 -4 -4 -10z"/>
<path d="M10075 8522 c-17 -12 -16 -39 0 -39 9 0 14 6 11 13 -3 7 0 14 7 17 7
2 7 6 1 10 -5 3 -14 3 -19 -1z"/>
<path d="M6585 8470 c3 -5 11 -10 16 -10 6 0 7 5 4 10 -3 6 -11 10 -16 10 -6
0 -7 -4 -4 -10z"/>
<path d="M4318 8463 c7 -3 16 -2 19 1 4 3 -2 6 -13 5 -11 0 -14 -3 -6 -6z"/>
<path d="M7270 8410 c8 -5 10 -10 5 -10 -14 0 -14 -43 -1 -52 7 -5 7 -8 1 -8
-6 0 -9 -21 -7 -50 2 -27 8 -47 13 -44 5 3 9 0 9 -7 0 -9 4 -9 15 1 8 6 18 10
22 7 4 -3 9 20 10 50 1 36 -2 51 -8 42 -5 -8 -9 -9 -9 -3 0 6 3 14 7 17 3 4 8
19 9 33 2 21 0 23 -11 14 -15 -13 -39 -4 -30 11 4 5 -4 9 -17 9 -18 0 -20 -2
-8 -10z m36 -64 c1 -11 -4 -28 -11 -39 -14 -20 -14 -20 -12 1 0 11 5 18 10 15
4 -3 7 3 5 13 -2 11 -10 22 -18 26 -11 6 -10 7 4 5 11 -1 20 -11 22 -21z m15
-73 c13 -17 13 -17 -5 -3 -18 14 -19 13 -12 -5 5 -15 4 -17 -5 -8 -6 6 -8 16
-5 22 9 14 11 14 27 -6z"/>
<path d="M6270 8349 c0 -18 2 -19 15 -9 15 12 12 30 -6 30 -5 0 -9 -10 -9 -21z"/>
<path d="M5835 8350 c4 -6 11 -8 16 -5 14 9 11 15 -7 15 -8 0 -12 -5 -9 -10z"/>
<path d="M4274 8308 c-5 -7 -8 -24 -8 -38 0 -22 4 -25 36 -25 29 -1 34 2 30
17 -2 10 -13 23 -24 29 -10 5 -16 14 -13 20 4 5 2 9 -4 9 -5 0 -13 -6 -17 -12z
m19 -33 c4 -8 3 -16 -1 -19 -4 -3 -9 4 -9 15 -2 23 3 25 10 4z"/>
<path d="M3470 8296 c0 -2 7 -6 15 -10 8 -3 15 -1 15 4 0 6 -7 10 -15 10 -8 0
-15 -2 -15 -4z"/>
<path d="M6125 8290 c3 -5 8 -10 11 -10 2 0 4 5 4 10 0 6 -5 10 -11 10 -5 0
-7 -4 -4 -10z"/>
<path d="M9055 8250 c-3 -5 -1 -10 4 -10 6 0 11 5 11 10 0 6 -2 10 -4 10 -3 0
-8 -4 -11 -10z"/>
<path d="M2321 7468 c-37 -6 -199 -81 -211 -97 -3 -4 -28 -23 -57 -44 -95 -69
-199 -195 -269 -327 -16 -30 -32 -56 -36 -58 -5 -2 -8 -12 -8 -23 0 -10 -5
-19 -12 -19 -6 0 -9 -3 -6 -6 4 -3 -7 -38 -23 -77 -17 -40 -29 -72 -28 -72 0
0 -4 -19 -10 -42 -6 -23 -14 -60 -17 -83 -6 -39 -5 -41 18 -36 14 2 31 0 38
-4 7 -5 24 -4 36 0 14 6 26 5 29 -1 4 -5 11 -6 17 -3 10 6 170 9 191 4 9 -3
46 -3 50 0 3 2 180 2 192 0 6 -1 15 -1 20 0 13 2 208 2 218 0 9 -3 46 -3 50 0
3 2 180 2 192 0 6 -1 15 -1 20 0 13 2 207 2 220 0 25 -5 41 -5 50 1 6 4 32 4
58 -1 26 -4 50 -4 52 0 3 5 75 5 83 0 3 -3 40 -3 50 0 9 3 124 2 137 0 6 -1
15 -1 20 0 13 2 127 2 140 0 6 -1 15 -1 20 0 13 2 127 2 140 0 6 -1 12 -2 15
-1 6 3 343 3 353 1 9 -3 46 -3 50 0 3 2 180 2 192 0 6 -1 15 -1 20 0 13 2 367
2 378 0 9 -3 46 -3 50 0 3 2 180 2 192 0 6 -1 15 -1 20 0 14 3 125 1 155 -3
14 -2 29 -1 35 2 9 5 118 5 140 1 6 -1 15 -1 20 0 13 2 127 2 140 0 6 -1 15
-1 20 0 13 2 127 2 140 0 6 -1 15 -1 20 0 6 1 38 2 73 2 l62 0 24 51 c13 29
47 102 76 162 29 61 67 142 85 180 18 39 56 118 84 178 28 59 52 110 53 114 2
4 24 50 50 103 26 52 45 96 43 98 -7 7 -3813 7 -3854 0z"/>
<path d="M6753 7442 c-13 -2 -23 -8 -23 -13 0 -5 -24 -53 -54 -106 -58 -107
-98 -181 -172 -318 -26 -49 -52 -91 -56 -93 -4 -2 -8 -11 -8 -21 0 -9 -4 -21
-9 -27 -9 -10 -20 -30 -171 -309 -56 -104 -118 -219 -138 -255 -20 -36 -49
-90 -64 -120 -16 -30 -44 -82 -62 -115 -18 -33 -47 -87 -66 -120 -18 -33 -55
-103 -83 -155 -27 -52 -53 -99 -57 -105 -4 -5 -33 -59 -65 -120 -32 -60 -61
-114 -65 -120 -4 -5 -24 -41 -45 -80 -158 -300 -291 -535 -304 -541 -9 -3 -65
-19 -126 -35 -100 -27 -128 -34 -175 -44 -8 -2 -15 -4 -15 -5 0 -2 -28 -9 -60
-15 -11 -2 -67 -16 -125 -30 -147 -37 -140 -36 -132 -17 6 16 111 200 132 232
6 8 13 22 17 30 4 8 26 48 50 88 24 40 43 77 43 82 0 6 3 10 8 10 4 0 12 10
18 23 16 33 64 117 93 162 14 22 24 43 23 48 -1 4 2 7 8 7 5 0 10 4 10 8 0 9
149 274 159 282 5 5 24 37 70 124 9 17 20 35 24 40 5 6 23 37 40 68 18 31 61
107 97 168 36 62 77 133 91 159 15 25 35 60 45 78 64 106 85 146 80 150 -7 7
-1252 7 -1264 -1 -6 -3 -29 -41 -53 -84 -63 -114 -89 -161 -120 -214 -16 -27
-29 -51 -29 -54 0 -2 -11 -22 -25 -44 -14 -22 -39 -66 -56 -98 -16 -31 -40
-75 -53 -97 -13 -22 -38 -67 -56 -100 -18 -33 -36 -64 -40 -70 -4 -5 -26 -46
-50 -90 -23 -44 -49 -87 -56 -96 -8 -8 -14 -19 -14 -23 0 -4 -71 -134 -159
-290 -87 -155 -175 -313 -196 -351 -21 -39 -45 -78 -53 -87 -8 -10 -11 -18 -7
-18 4 0 2 -8 -6 -17 -15 -19 -22 -31 -68 -116 -16 -29 -38 -68 -49 -87 -12
-19 -28 -50 -36 -67 -8 -18 -19 -33 -23 -34 -4 0 -17 -2 -28 -4 -11 -3 -101
-16 -200 -30 -99 -15 -191 -28 -205 -30 -14 -2 -46 -6 -72 -9 -26 -3 -64 -9
-85 -12 -21 -4 -51 -8 -68 -10 -16 -1 -59 -6 -94 -10 l-63 -6 73 138 c40 77
80 153 90 169 10 17 34 62 53 100 19 39 56 108 81 155 26 47 70 130 98 185 29
55 58 106 65 113 7 8 10 18 7 23 -4 5 -1 9 4 9 6 0 11 4 11 9 0 13 193 376
202 379 4 2 8 10 8 17 0 8 9 29 19 47 33 56 110 200 142 263 17 33 47 92 68
130 20 39 57 108 81 155 25 47 47 87 50 90 3 3 24 42 47 88 l42 82 -37 1 c-33
0 -3326 0 -3495 -1 l-69 0 7 -32 c21 -102 126 -212 278 -292 92 -48 178 -68
242 -56 27 5 62 4 82 -2 12 -4 25 -3 28 3 4 5 11 6 17 3 14 -9 102 -9 116 0 6
3 13 2 17 -4 4 -6 12 -7 23 -1 9 5 26 5 39 0 13 -5 25 -4 28 2 4 5 11 6 17 3
9 -6 257 -8 284 -3 5 1 14 0 19 -1 20 -4 97 -2 102 4 3 2 16 1 29 -4 14 -6 26
-6 29 1 4 5 11 6 17 3 9 -6 87 -8 113 -4 28 5 62 4 82 -2 12 -4 25 -3 28 3 4
5 11 6 17 3 14 -9 102 -9 116 0 6 3 13 2 17 -4 4 -6 12 -7 23 -1 9 5 26 5 39
0 13 -5 25 -4 28 2 4 5 11 6 17 3 5 -3 86 -6 179 -6 99 0 171 -3 175 -9 3 -5
0 -16 -6 -25 -7 -8 -21 -29 -30 -47 -10 -17 -25 -31 -34 -31 -9 1 -16 -2 -16
-7 0 -5 -10 -5 -22 0 -12 4 -40 4 -62 0 -23 -4 -45 -5 -49 -2 -5 3 -41 4 -80
4 -40 -1 -81 -1 -92 -1 -11 1 -27 1 -35 0 -8 0 -28 0 -45 1 -16 1 -46 0 -65 0
-39 -1 -69 -1 -117 2 -17 1 -29 -2 -26 -6 3 -5 -4 -6 -16 -2 -12 3 -52 6 -89
6 -37 -1 -76 -1 -87 -1 -11 1 -27 1 -35 0 -8 0 -28 0 -45 1 -16 1 -45 1 -62 0
-18 -1 -41 -1 -50 -1 -10 0 -34 0 -53 -1 -19 -1 -43 -1 -52 -1 -10 1 -51 1
-90 1 -40 0 -82 1 -93 1 -11 1 -27 1 -35 0 -21 -1 -69 1 -103 4 -15 1 -32 -1
-38 -5 -7 -4 -23 -3 -38 1 -14 4 -36 3 -49 -1 -14 -5 -21 -5 -17 0 3 6 -6 6
-23 1 -16 -4 -35 -4 -43 0 -61 39 -6 -125 69 -205 58 -61 101 -87 245 -149
l59 -26 401 1 c221 0 411 0 422 0 115 -3 145 -2 154 3 5 4 12 2 15 -2 3 -5 17
-7 30 -5 21 4 24 2 19 -16 -3 -12 -9 -21 -14 -21 -5 0 -9 -4 -9 -9 0 -8 -149
-279 -188 -341 -9 -14 -26 -43 -38 -65 -11 -22 -31 -56 -43 -75 -11 -19 -26
-46 -33 -60 -7 -14 -15 -27 -18 -30 -3 -3 -13 -21 -24 -40 -34 -64 -67 -125
-88 -160 -12 -19 -34 -60 -51 -90 -16 -30 -35 -62 -42 -70 -7 -8 -18 -30 -26
-47 -8 -18 -17 -33 -21 -33 -5 0 -8 -5 -8 -10 0 -6 -36 -73 -80 -150 -44 -77
-80 -144 -80 -150 0 -5 -5 -10 -11 -10 -5 0 -8 -4 -4 -9 3 -6 969 -9 2533 -7
2259 2 2535 4 2607 18 96 19 129 26 175 33 27 5 210 48 371 89 115 29 436 136
532 176 37 16 68 29 70 28 1 0 18 6 37 14 19 9 64 28 100 43 36 15 96 43 134
61 37 19 74 34 81 34 7 0 15 3 17 8 2 4 41 26 88 50 162 81 382 211 519 306
25 18 52 36 59 40 6 4 -2 -17 -18 -46 -17 -29 -38 -69 -48 -88 -9 -19 -19 -37
-22 -40 -3 -3 -37 -61 -75 -130 -75 -137 -108 -197 -138 -250 -11 -19 -33 -60
-50 -90 -16 -30 -33 -59 -37 -65 -11 -14 -100 -181 -100 -187 0 -3 281 -5 625
-5 441 0 628 4 634 11 5 6 31 52 56 101 26 50 57 108 70 130 22 38 50 91 173
325 30 58 67 128 82 155 15 28 53 100 85 160 32 61 70 133 85 160 15 28 47 86
70 130 23 44 59 112 80 150 20 39 58 109 84 158 87 165 139 262 174 327 19 36
62 117 95 180 34 63 78 147 99 185 21 39 47 88 58 110 39 79 96 184 109 199 8
9 11 16 8 16 -3 0 11 30 32 68 21 37 71 130 111 207 40 77 76 145 80 150 4 6
34 62 66 125 32 63 62 117 65 120 8 7 49 95 49 106 0 5 -228 9 -582 9 l-582 0
-171 -170 c-166 -166 -192 -191 -325 -305 -35 -30 -71 -62 -79 -70 -9 -8 -37
-31 -61 -50 -59 -46 -80 -63 -94 -75 -105 -97 -672 -497 -921 -650 -44 -27
-81 -53 -83 -57 -2 -5 -10 -8 -17 -8 -8 0 -20 -6 -27 -12 -8 -7 -25 -19 -38
-27 -14 -8 -83 -49 -155 -91 -71 -42 -155 -90 -185 -107 -184 -103 -224 -124
-305 -168 -110 -59 -501 -255 -509 -255 -9 0 105 224 116 228 4 2 8 11 8 21 0
9 4 21 9 27 4 5 64 117 131 249 68 132 151 294 185 360 76 146 192 372 310
600 48 94 132 257 187 363 55 105 98 192 96 193 -8 3 -1106 4 -1125 1z"/>
<path d="M12148 7428 c-10 -10 -29 -37 -44 -60 -23 -37 -92 -129 -144 -191
-48 -57 -236 -240 -295 -287 -154 -122 -453 -296 -625 -363 -84 -32 -179 -67
-185 -67 -3 0 -6 0 -7 -1 -2 0 -10 -2 -18 -4 -8 -2 -53 -13 -100 -25 -78 -19
-115 -27 -132 -29 -7 -1 -42 -63 -128 -226 -29 -55 -62 -116 -73 -135 -11 -19
-44 -82 -74 -140 -31 -58 -63 -118 -73 -135 -9 -16 -41 -75 -70 -130 -29 -55
-67 -127 -85 -160 -18 -33 -51 -95 -74 -138 l-42 -78 93 -93 c209 -208 280
-317 343 -526 13 -42 66 -260 71 -290 3 -19 8 -38 9 -41 2 -3 7 -28 11 -55 3
-27 10 -58 14 -70 l8 -21 595 0 595 1 -8 25 c-4 14 -17 53 -29 86 -13 33 -33
92 -46 130 -117 341 -200 534 -296 690 -11 17 -22 37 -26 45 -3 8 -9 17 -12
20 -3 3 -28 39 -55 80 -54 83 -177 255 -243 340 -48 62 -51 57 55 95 38 14 96
37 128 52 33 15 61 27 64 27 19 4 303 150 383 197 54 33 101 59 103 59 2 0 35
20 74 45 39 25 75 45 80 45 6 0 10 5 10 10 0 6 6 10 14 10 8 0 16 3 18 8 2 4
48 36 103 72 111 72 108 70 151 105 18 14 36 25 42 25 6 0 12 3 14 8 2 4 55
46 118 94 218 165 455 392 721 693 24 27 49 55 54 61 6 6 30 35 55 64 25 29
50 58 55 64 50 55 96 118 91 124 -4 3 -269 6 -589 7 -537 0 -583 -1 -599 -17z"/>
</g>
</svg>
